<svg width="66" height="28" viewBox="0 0 66 28" fill="none" xmlns="http://www.w3.org/2000/svg">
<rect width="66" height="28" rx="14" fill="#007AFF"/>
<path d="M13.1768 19.9229C12.9082 19.9229 12.6934 19.8252 12.5322 19.6299C12.376 19.4395 12.2979 19.1855 12.2979 18.8682V8.57031C12.2979 8.25293 12.376 7.99902 12.5322 7.80859C12.6934 7.61816 12.9082 7.52295 13.1768 7.52295C13.3232 7.52295 13.4624 7.5498 13.5942 7.60352C13.7261 7.65234 13.8652 7.71826 14.0117 7.80127L22.5518 12.7451C22.8594 12.9209 23.0718 13.0796 23.189 13.2212C23.311 13.3579 23.3721 13.5239 23.3721 13.7192C23.3721 13.9146 23.311 14.083 23.189 14.2246C23.0718 14.3613 22.8594 14.52 22.5518 14.7007L14.0117 19.6372C13.8652 19.7251 13.7261 19.7935 13.5942 19.8423C13.4624 19.896 13.3232 19.9229 13.1768 19.9229Z" fill="white"/>
<path d="M29.0068 15.228V14.0562H31.9951C32.752 14.0562 33.3379 13.8608 33.7529 13.4702C34.168 13.0747 34.3755 12.5303 34.3755 11.8369V11.8223C34.3755 11.124 34.168 10.5796 33.7529 10.189C33.3379 9.79834 32.752 9.60303 31.9951 9.60303H29.0068V8.43115H32.332C32.9961 8.43115 33.582 8.57275 34.0898 8.85596C34.5977 9.13916 34.9956 9.53467 35.2837 10.0425C35.5767 10.5503 35.7231 11.1387 35.7231 11.8076V11.8223C35.7231 12.4912 35.5767 13.082 35.2837 13.5947C34.9956 14.1074 34.5977 14.5078 34.0898 14.7959C33.582 15.084 32.9961 15.228 32.332 15.228H29.0068ZM28.3477 19V8.43115H29.666V19H28.3477ZM37.5659 19V7.96973H38.8403V19H37.5659ZM43.2246 19.1392C42.7265 19.1392 42.2773 19.0439 41.8769 18.8535C41.4814 18.6631 41.1665 18.3921 40.9321 18.0405C40.7026 17.689 40.5879 17.2739 40.5879 16.7954V16.7808C40.5879 16.312 40.7002 15.9116 40.9248 15.5796C41.1494 15.2427 41.4765 14.979 41.9062 14.7886C42.3359 14.5981 42.8559 14.4858 43.4663 14.4517L46.3667 14.2759V15.2939L43.6201 15.4697C43.0195 15.5039 42.58 15.6284 42.3017 15.8433C42.0283 16.0581 41.8916 16.3608 41.8916 16.7515V16.7661C41.8916 17.1665 42.0429 17.479 42.3457 17.7036C42.6484 17.9233 43.0293 18.0332 43.4882 18.0332C43.9228 18.0332 44.3086 17.9478 44.6455 17.7769C44.9824 17.6011 45.2461 17.3643 45.4365 17.0664C45.6318 16.7686 45.7295 16.4316 45.7295 16.0557V13.5947C45.7295 13.1064 45.5805 12.7354 45.2827 12.4814C44.9897 12.2227 44.5478 12.0933 43.957 12.0933C43.4834 12.0933 43.0952 12.1787 42.7924 12.3496C42.4897 12.5156 42.2871 12.7524 42.1845 13.0601L42.1772 13.082H40.9028L40.9101 13.0381C40.9785 12.623 41.1494 12.2617 41.4228 11.9541C41.7011 11.6416 42.06 11.3999 42.4995 11.229C42.9389 11.0532 43.4394 10.9653 44.0009 10.9653C44.6455 10.9653 45.1899 11.0703 45.6342 11.2803C46.0835 11.4902 46.4228 11.793 46.6523 12.1885C46.8867 12.5791 47.0039 13.0479 47.0039 13.5947V19H45.7295V17.8354H45.6123C45.4462 18.1138 45.2436 18.3506 45.0044 18.5459C44.77 18.7412 44.5039 18.8901 44.206 18.9927C43.9082 19.0903 43.581 19.1392 43.2246 19.1392ZM49.4838 21.7686C49.4008 21.7686 49.308 21.7637 49.2055 21.7539C49.103 21.749 49.0078 21.7393 48.9199 21.7246V20.6772C48.998 20.6919 49.0834 20.7017 49.1762 20.7065C49.269 20.7114 49.3593 20.7139 49.4472 20.7139C49.8085 20.7139 50.1039 20.6211 50.3334 20.4355C50.5678 20.25 50.7558 19.9302 50.8974 19.4761L51.0439 19.0073L48.1215 11.1045H49.4838L51.9155 18.3994L51.4101 17.6011H52.0107L51.5053 18.3994L53.9296 11.1045H55.27L52.1865 19.4834C51.9716 20.0742 51.7446 20.5356 51.5053 20.8677C51.2661 21.1997 50.9853 21.4316 50.663 21.5635C50.3456 21.7002 49.9526 21.7686 49.4838 21.7686Z" fill="white"/>
</svg>
