<svg xmlns="http://www.w3.org/2000/svg" xmlns:xlink="http://www.w3.org/1999/xlink" width="1506.177" height="824.955" viewBox="0 0 1506.177 824.955">
  <defs>
    <clipPath id="clip-path">
      <rect id="Rectángulo_96" data-name="Rectángulo 96" width="1506.177" height="824.955" fill="none"/>
    </clipPath>
  </defs>
  <g id="Grupo_99" data-name="Grupo 99" opacity="0.477">
    <g id="Grupo_71" data-name="Grupo 71" clip-path="url(#clip-path)">
      <g id="Grupo_70" data-name="Grupo 70">
        <g id="Grupo_69" data-name="Grupo 69" clip-path="url(#clip-path)">
          <g id="Grupo_68" data-name="Grupo 68" opacity="0.2">
            <g id="Grupo_67" data-name="Grupo 67">
              <g id="Grupo_66" data-name="Grupo 66" clip-path="url(#clip-path)">
                <path id="Trazado_86" data-name="Trazado 86" d="M136.673,179.289c2.984,0,3.356,1.084,5.918,0s10.124-6.07,12.688-6.757,4.2.225.427,2.328-11.352,6.648-10,6.3a94.152,94.152,0,0,0,10.612-4.542c5.427-2.559,4.935-1.421,6.333-4.145s2.139-4.15,2.139-4.15,8.6,8.8,9.389,9.149,1.105-.061,1.531-1.137,1.339-2.618,2.56-2.1.179,2.611.907,2.895,1.953-.054,4.211-.792,1.1-2.382,1.1-2.382-.241-.064,2.382-.29,10.852,2.782,13.292,3.748,9.824,1.765,11.9,2.441,2.857-1.191,5.732.343,5,3.576,2.861,4.654-7.5,1.876-4.756,2.557a41.944,41.944,0,0,0,10.859,1.421c3.962-.118,11.095-1.588,13.287-1.588s3.54,1.363,5.616,4.826,3.716,4.826,4.508,5.11-.792-1.647-.37-3.351-.422-5.057-.912-6.188,0-1.706-.976-3.356-2.555-1.363.372-2.779,4.937-3.517,8.477-3.067,4.509,4.944,7.56,5.277,3.6,1.532,8.844,1.936,3.05.057,8.906.456,3.721-.635,4.939-3.637,2.562-3.581,3.962-3.463,6.337.792,6.337,1.422-2.071,3.855-1.035,5.448,5.257,4.2,5.257,4.2-.917-3.635-.917-4.032-.308-3.233.3-3.748,4.087.284,6.281-3.978-1.472-4.032-1.472-4.032-1.341.063-.671-1.7,4.576-2.838,4.576-2.838.247.8-.249-.631-3.04-1.132-5.79-1.3-4.627-.561-5.121-2.895a67.438,67.438,0,0,1-.671-10.564c0-3.351,2.687-2.16,3.168-4.032s-.122-11.014-.787-12.89.971-5.911,1.346-8.574c.352-2.671,3.1-1.481,3.1-1.481-.488-.912.789-3.465,4.449-4.542s10.619.054,10.619.054-.617.057-2.323,2.273-.606,6.14-3.174,8.919-9.083,1.876-9.083,1.876,2.012,4.6,1.157,6.069a18.241,18.241,0,0,0-1.4,4.5s5.733,1.588,6.038,5.223,3.161,4.257,3.837,7.608-2.8,6.133-2.074,6.644.976.74,3.056.851,4.876.51,4.876.51a3.5,3.5,0,0,0-.125,3.522c1.041,1.82.247,2.956.365,4.885s1.282,3.576,1.765,3.24,2.752-5.287,3.238-7.5.853-3.412,1.824-3.412,4.273,3.015,4.638,4.091.612,2.559-1.218,5.507-1.645,4.316-.057,5.454,1.645.8,4.508,2.16,2.323,1.246,4.086.735-.733-5-.551-5.108,4.214-.569,3.3-2.843-1.84-3.4.054-4.542,3.233-2.042,3.233-2.042a22,22,0,0,1-2.375-5.343c-1.341-3.807,1.153-2.777,6.407-2.385s5.48,2.215,8.291,3.635,1.034,1.931,1.945,4.2-2.315,2.612-2.315,2.612-2.135.4-1.647,2.155a31.562,31.562,0,0,0,2.993,6.591c1.522,2.729-.426,4.6-2.811,6.814a11.448,11.448,0,0,1-7.984,2.9c-2.811.054-4.027,1.189-4.206.4s-1.532-1.534-3.05-1.191-5.008,1.706-3.785,2.155,4.45.343,3.109,2.843-2.5,2.5-5.184,2.214-5.182-.283-6.9-.4-10.124-.622-10.124-.622a57.885,57.885,0,0,0,10.192,4.885,22.037,22.037,0,0,0,9.273.569s-1.833,3.4-4.032,7.04-4.268,2.049-6.092,2.274c-1.84.225-2.932,1.7-6.342,2.155s-10.553-.964-9.461-.451,1.59,1.416,3.539,1.706A8.327,8.327,0,0,1,320,218.308c1.7,1.421-1.1,1.765-3.353,2.158s-2.87.8-3.9,2.214-4.885,6.927-6.1,8.633a18.808,18.808,0,0,0-2.8,7.892c-.493,3.356-3.351,7.385-2.069,8.236s6.09.966,8.107,2.215,4.273,7.385,5.792,9.711,2.745,4.091,4.449,2.273,5.067-1.362,8.238-.224,9.634,5.618,11.651,7.6,5.545,1.652,9.507,2.221,4.415,2.058,4.415,2.058,4.127.215,2.423,1.974-2.2.052-.493,3.007a13.376,13.376,0,0,1,1.164,8.917c-.493,1.988,5.464.987,7.968,2.462s2.639,7.479,3.925,6.739,3.412-2.047,3.657-3.635a30.77,30.77,0,0,0-.306-6.419c-.245-2.729-.915-7.726-2.257-9.711s2.417-2.782,1.806-3.635-.465-2.552,2.1-3.238,2.745-.054,4.146-1.137,1.647-6.129,1.886-7.946a19.845,19.845,0,0,0-1.03-7.211,46.929,46.929,0,0,0-4.021-7.215c-.928-1.023-2.074-1.307.429-4.486s1.03-2.5.663-3.465-.91-3.351-1.4-5.507,1.035-4.547.118-7.614-1.886-2.382-1.7-3.068,5.972-.508,10.245-.052,5.974-.456,7.19-.456,3.424,1.194,5.8,2.73,3.29,1.135,4.515,3.006,1.886,2.9,4.379,2.784a13.426,13.426,0,0,1,5.2,1.076s-1.776,1.026-1.464,4.377-.37,5.786-.311,7.154.738,1.421,1.886,1.591,4.281,2.948,7.5,4.086,4.087.794,5.123-1.817,1.286-2.387,2.568-2.553,1.706.284,2.253-.284-.976-1.7-.612-3.517,2.133-4.2,3.6-5.572,2.5,1.368,3.78,3.866,5.731,10.617,7.013,13.283,2.929,2.841,1.4,5.344-2.258,3.571.122,4.708,4.517,3.127,4.34,5c-.193,1.876-.681,1.929.118,2.444s3.655-1.025,5.732-.114,4.567,1.767,6.038,3.235,1.345,1.99-.737,2.723a36.643,36.643,0,0,0-5.185,2.1c-1.039.628-2.68,1.824-2.621,2.789s-.429,2.552,1.223,1.3a22.022,22.022,0,0,1,6.28-3.067c1.951-.563.486-.059,2.256-.286s3.474.855,5.92,1.536c2.428.687,1.763,2.214,1.152,3.635s-1.152,2.779-.181,4.375-.426,3.008-2.564,4.939-3.716,2.214-7.19,2.67-5.132,2.553-7.567,4.821-3.657,1.706-7.2,1.877-2.135-1.759-3.229-1.363-2.5,1.593-4.756,1.824-9.886.336-12.815,1.191-2.006,2.836-2.739,4.483-1.894.966-4.086,1.7-4.822,3.98-7.378,8.407a27.565,27.565,0,0,1-6.038,7.154,19.191,19.191,0,0,0,6.1-4.547c1.77-2.156,9.148-7.265,11.406-8.853s7.131-3.919,8.289-3.583,4.032,2.559,4.032,3.694-.858,2.044-2.927,3.975-4.822,0-4.638.792a5.345,5.345,0,0,0,3.233,3.009c1.586.4,1.516,2.333,1.516,3.3s-.912,2.214,2.746,5.28,6.226,3.294,8.912,3.122,1.277.912,2.376.8,1.341-2.214,1.7-3.919.982-3.292,1.953-4.032,1.706-2.1,2.017.515-1.1,6.188-2.512,6.981c-1.393.8-1.087,1.818-1.087,2.611s-1.588.855-5.373,2.957-5,2.611-5.668,2.326-2.074.343-3.9,1.99-3.78,3.866-5.121,3.8-2.5-.622-.676-2.5,2.444-4.483,4.27-5.395a7.386,7.386,0,0,1,4.209-.794c1.522,0,.794-.91,2.012-1.811s-.917-.633-2.993-.971-.483-2.16-.483-2.16l-2.14,1.135a27.129,27.129,0,0,1-4.084,1.824c-.849.107-.665.676-.912,1.017s-3.294.57-3.294.57-1.588,3.233-3.968,3.689-.724.283-2.439,1.019-1.395-.848-1.765-.4a11.159,11.159,0,0,1-2.559,2.273c-1.892,1.427-3,1.877-4.332,7.047s.241,7.04.184,7.841-2.382-.517-3.047.105c-.681.628-2.2,2.559-4.214,3.126s-5.974,1.593-6.891,2.559-.974,2.328-1.4,4.311a43.463,43.463,0,0,1-2.805,6.65,3.209,3.209,0,0,0-1.1-3.24c-1.645-1.363-1.393-2.611-1.393-2.611a8.46,8.46,0,0,0,.241,3.8c.617,1.929,1.822,3.866,1.28,5.963s-1.591,4.719-2.863,5.452c-1.287.74.3-1.42.3-3.12s-.853-1.818-1.4-2.664-.554-3.015.424-5.915-.912-1.132-2.012.8-1.883,5.505-.182,7.839-1.094,2.1.063,5.448-1.4,5-.921,5.513c.493.51,1.833-.225,2.444,1.416s-1.218.912-1.827,1.368-.311,1.076.059,1.988,1.1.331.794.622a6.59,6.59,0,0,1-2.746,1.931c-1.582.51-1.709-.29-2.686.851s-1.7,2.155-2.741,3.46-1.763.856-2.863,1.763-1.522,1.647-2.873,2.784c-1.336,1.135-4.386,2.895-6.033,5.108s-1.223,2.784-2.017,6.365,2.017,9.823,3.785,15.733,2.5,4.257,2.253,6.128a10.112,10.112,0,0,1-2.321,5.454c-1.271,1.309-2-.912-3.769-2.219s-.37-2.208-2.078-4.933A9.578,9.578,0,0,1,355.735,434a25.073,25.073,0,0,0-1.4-6.981c-.917-2.167-2.872-4.89-5.8-3.809s-2.194.569-3.78.107-5.793-2.149-7.932-1.019-8.9-.342-10.306,0-2.444.461-2.444,1.427-.6,1.126,1.9,1.813,2.133,1.42,1.954,2.5-2.02-.569-2.995-.966-1.888.8-3.594.8-2.015-1.647-3.544-1.872-2.133,0-3.6-.57-3.412-1.532-5.123-1.418-8.293,4.486-11.4,6.814-5.493,4.6-6.215,6.471-.8,2.049,1.7,4.831,1.341,2.333.855,3.921-1.953,3.517-3.719,7.608-.733,6.076,1.4,10a36.662,36.662,0,0,0,5.736,8.4c1.711,1.647,2.923,3.41,4.393,4.034a5.815,5.815,0,0,1,2.439,1.532c.671.687.488.965,2.809.341,2.3-.62,4.016-1.532,5.668-1.532s3.176.054,4.086.912,1.035.343,1.035-.12a11.438,11.438,0,0,1,.974-2.611c.243-.456,2.443-3.576,2.805-5.282s.365-5.114,2.505-5.339,6.7-1.305,10.853-1.019,2.316,2.326,1.221,4.481-1.532,2.387-1.532,4.034.492,1.652-.842,2.616-.493-.567-1.041.4a8.558,8.558,0,0,1-2.258,2.1c.241-.225.853,1.641.853,2.552s-.182,1.362-.182,3.581-4.332,4.484-4.332,4.484a8.5,8.5,0,0,0,3.9.912c2.323,0,5.121,0,7.562,1.137s7.074-.912,10.494.792,2.2,2.723,2.434,4.316a49.2,49.2,0,0,1,.375,8.291c-.254,1.248-1.838,4.767-2.693,7.27s2.439,4.316,5.5,6.36a25.478,25.478,0,0,0,7.32,3.4c1.572.456,4.5-2.387,9.877-2.042a8.443,8.443,0,0,1,7.19,4.883,23.1,23.1,0,0,1,3.052-6.7c2.444-3.86,2.557-5,5.851-6.249s4.395-1.472,9.763-3.179,4.388-.451,7.186-.224a77.959,77.959,0,0,1,15.744,2.723c6.46,1.931,16.348,2.5,20.124,4.086s5.489,6.027,9.393,9.657,8.779,6.927,10.853,8.634,13.663,3.3,16.225,4.316,6.1,5.223,6.339,7.721,2.8,3.748,6.339,5.223,4.638,3.185,6.959,7.724,1.582,5.791,4.751,6.929,25.133,7.041,30.613,9.2,12.447,7.953,14.274,8.633,5.125-.57,6.591.227-.86,5.108.976,8.177,1.949,3.3.851,5.566-5.491,7.726-7.19,10.451c-1.716,2.729-5.373,4.429-7.442,5.57s-3.91,0-2.078,2.269.125,4.2-1.463,6.247.122,1.813-.37,8.406,0,13.739-.735,16.582-4.992-2.5-9.877,3.633-6.215,10.791-9.142,11.469-9.759,4.095-12.077,6.249-2.8,2.954-4.272,6.135-2.923,9.65-4.509,13.63-4.146,6.247-10,11.581-8.418,10.794-12.2,15-2.8,3.288-3.594,4.084c-2.019,2.028-10.342-3.269-8.193-.334,1.588,2.153-.894,0,.445,2.036s2.323,2.841-.6,6.476-6.306,2.918-8.624,3.487-5.774-2.385-6.015-.907-1.582,5.148-3.415,6.051-6.7,2.276-6.58,2.845c2.3,10.762,7.04,11.883,2.028,11.388-13.754-1.339-3.943-4.606-13.5,15.413-1.457,3.072-2.922,1.481-2.68,5.116s0,6.36,1.956,8.633.608,2.155-2.686,5.221-3.539,2.618-6.585,7.272-5.977,4.429-4.885,7.953,1.346,8.744,3.174,13.967,5.609,4.311,11.59,7.95,6.707,1.7,9.636,2.614-2.078,1.137-7.326,2.044-8.654,1.929-12.318,1.143-12.312-5.8-15.243-7.959-7.678-6.019-9.389-9.765-2.929-7.5-5.121-12.606-.617-8.295.365-19.54,1.711-19.99,3.292-26.005,6.467-32.827,7.8-39.761,7.563-35.094,8.053-39.525a106.3,106.3,0,0,1,1.827-12.268c.976-4.431.37-13.4.37-13.856s-.37-.794-1.715-5-3.533-5.909-6.582-7.721-6.224-4.093-8.658-5.8a37.012,37.012,0,0,1-7.808-7.152c-2.444-3.066-4.762-9.314-5.977-11.93a160.086,160.086,0,0,0-9.877-17.6c-4.146-6.135-4.393-6.251-6.467-12.727s1.829-6.587,2.564-10.224,3.168-7.268,5.854-12.373,6.221-6.591,8.3-11.132.486-4.547-.247-8.976.247-3.742-1.105-6.135-2.063-5.328-3.286-6.131-3.047-1.364-4.145-.109-3.05,4.878-4.27,5.108-1.709-1.141-2.439-1.935-4.268-.794-5-1.586-2.559-.912-3.775-1.479a54.568,54.568,0,0,1-7.326-4.2,9.726,9.726,0,0,1-3.045-6.816c0-2.948-2.559-4.091-8.289-8.177s-8.177-4.66-15.132-6.365-9.754-6.584-12.076-7.948-2.069-2.841-7.2-2.271-11.342-2.274-15.25-3.862c-3.893-1.591-10.853-2.723-13.786-4.654-2.916-1.935-8.037-2.618-10.237-7.27s-1.833-2.841-.975-6.927-5-7.5-8.541-11.358-6.221-4.431-8.05-9.2-4.509-4.545-8.048-7.951-3.662-7.726-5.126-11.587-11.213-9.428-11.213-9.428,2.553,6.478,3.651,9.089a98.794,98.794,0,0,0,6.591,13.519c2.922,4.654,5.491,5.79,8.171,10.446s.123,7.5-.858,5.682-4.878-2.618-4.878-4.772-.971-3.521-1.829-5.221-4.633-3.642-8.295-6.6-6.215-4.311-3.905-4.311,5.614,2.155,5,.792-4.756-5.564-6.707-8.518-2.569-6.249-4.515-11.245-9.144-9.77-12.688-10.108-4.509-2.042-5.725-5.679-1.464-7.5-3.052-10.338-8.418-12.375-8.536-16.01-2.076-14.2.363-20.108,1.829-19.078,1.466-21.7-4.762-7.6-4.762-9.539,2.568-.792,4.52-.231,6.09,2.274,6.09,2.274-3.163-5.9-5.114-7.948-7.69-4.658-10.249-5.226-5.854-1.475-7.2-3.632-2.8-5-3.785-6.82-5.126-3.968-6.09-5.9c-.982-1.935-.737-5.679-2.078-7.608s-3.3-3.068-5.495-2.273-2.918-1.137-4.629-3.98-5.489-4.2-6.589-4.536-4.874-5.339-5.119-6.589-6.228-7.841-8.173-9.2-20.859-7.5-21.34-7.5-5.985.794-7.442.343-6.469-4.772-9.019-5.679c-2.571-.91-4.4,1.019-5.616,3.86-1.228,2.836-7.2,7.723-10.492,9.877s-5.981,2.392-5.738,1.255a21.391,21.391,0,0,1,1.227-5.684c1.1-2.723,1.7-3.517,5.117-5.223s3.292-1.817,1.954-1.706-2.319-.225.367-1.81c2.682-1.6,3.78-1.826,3.657-3.188s-5.856,1.824-9.518,4.772a33.332,33.332,0,0,0-9.019,10.221c-3.174,5.23.363,3.294-2.323,6.7s-11.828,10.338-14.51,12.949-13.78,8.4-18.3,9.77-6.337,1.931-8.536,3.75-7.678,2.38-5.854,1.137,5.244-4.1,7.563-5.459a97.51,97.51,0,0,1,10.367-4.536,33.634,33.634,0,0,0,9.518-6.7c2.557-2.841,4.268-6.135,5.972-8.858s2.076-3.978-1.457-2.843a14.983,14.983,0,0,1-9.03,0c-1.829-.679-6.591,2.156-8.3.914s.123-3.868-.98-5.117-4.874-.451-7.315-.91-5.85-2.382-5.85-5.793-2.439-6.358-1.1-8.969,3.3-3.3,5.491-4.767a31.784,31.784,0,0,1,9.511-3.412c1.228,0,2.934-1.25,4.028-2.387s-2.564-5.226-2.564-5.226.612-.451,2.076-1.363.368-2.836-2.2-2.5-8.048,2.963-11.465,3.862-8.043.343-7.925-1.132.853-2.385-.365-3.522-2.2-2.387-.976-2.949,8.785-4.772,8.785-4.772,2.68,2.949,5.607,3.292,9.144-5.11,9.144-5.11c-3.9-2.387-3.047-3.068-3.047-3.068s-6.344-.111-7.807-1.023-1.953-2.723-2.317-4.311-6.585-2.843-4.874-5.459,4.874-3.519,6.95-6.129,3.9-7.5,9.883-10.224,13.174-5.223,16.343-7.5,4.633-.105,5.856.227,8.783-.333,11.7-.333,3.417,3.286,4.391,4.08,26.715,1.593,26.715,1.593,21.823.343,26.222,1.591,12.316,4.542,12.316,4.542c4.821-.62,4.4-6.476,7.379-6.476M429.952,47.537s-2.2,9.089-10.97,11.587-24.891,9.539-25.621,10,.976,5.448,3.17,7.946,4.266,4.205,6.219,6.7,5.368,2.274,8.053,4.885,4.629,1.7,11.953,1.817,5.368.681,13.539,1.137,16.715,1.137,19.518,3.635,6.825,12.27,9.389,18.172,7.079,15.674,7.079,16.586-2.809,8.066-2.809,9.2,1.463,3.067,2.809,4.66.6,2.838.358,4.311,1.464,5.23,1.711,5.686,3.9-3.637,6.221-4.318,8.053,4.091,8.053,7.383c0,7.463,2.033,4.922-10.124,13.745-1.6,1.162-3.168,10.106-1.951,14.417s4.145,9.434,6.46,15.569,9.148,14.76,11.342,18.739,2.809,9.427,7.683,10.682,9.518,2.948,13.051,3.742,5.856,1.931,7.562-1.361,5.126-15.787,7.935-24.875-.25-11.814,6.339-13.856,17.072-6.135,19.876-7.383,2.323-10.222,8.543-13.18,7.072-2.72,13.169-4.656a83.06,83.06,0,0,0,20.741-10.106c6.1-4.316,7.8-2.046,10-6.022s-2.2-9.77-2.68-15.674,1.953-6.247,3.165-11.588,1.833-8.858,6.589-12.493,7.313-5.673,6.467-9.083S619.5,95.011,619.5,91.265s.853-1.588-1.1-6.811-1.952-5.909-.131-10.794c1.84-4.885,6.714-3.63,6.349-5.8s-7.807-5.448-7.926-11.469,1.341-7.833,2.559-9.314,13.664-11.358,14.515-12.27-.24-3.4,5.858-6.358,8.17-4.881,10.487-5.791,5.979-.794-1.1-2.841-8.654-2.95-13.292-2.382-6.214,3.179-14.515,3.978-17.691,4.654-17.691,4.654,2.811-2.5.37-4.89,6.344-10.219,7.814-11.131c1.454-.9-11.468-4.086-18.183-5.332S573.636-.508,566.076.055s-18.662.461-22.447,1.7-3.286,6.135-7.56,6.365-12.195-2.5-18.3-1.593-15.86,5.116-16.952,5.341,3.784,3.181,6.954,3.862S515.086,23,515.086,23s-8.529-2.843-17.2-5.228-18.789,0-22.322,1.023-8.173,2.95-15.245,3.294-15.122,6.135-19.148,8.858-16.586,10-19.76,11.7-1.951,2.5,1.464,3.41,7.072,1.477,7.072,1.477M249.2,141.43c.969,4.163.969,10.147-1.309,7.572s-4.146-7.8-7.8-5.684-7.64,1.523-6.991,1.067-.08-2.73-1.956-3.412-3,.381-4.949,1.518-8.136,2.65-5.616.676,1.708-3.022.812-5.3-7.32,1.588-10.735,4.018-5.443,6.128-7.481,8.626-.567,4.1,2.521,5,8.053,1.518,3.9,3.036-7.32,2.566-5.2,3.86,5.775,1.511,9.432,1.057,6.75-1.432,12.607.156a36.627,36.627,0,0,0,9.344,1.509,18.533,18.533,0,0,1-6.1,2.051c-3.9.674-11.063,0-14.725.674s-9.427,1.663-7.962,3.029,2.6,3.48,7.64,5.073,5.94.082,8.944.833,1.388,4.166,2.2,4.7,6.508-.452,12.2-1.513,3.576-1.974,8.053-3.109,4.629-4.538,7.234-5.3.735,1.742,3.816,2.5,1.386.989,4.72,1.52,2.68,1.817,5.935,1.586,7.074-2.417,6.585-2.805a2.824,2.824,0,0,1-.642-2.872c.32-1.513-3.267.3-4.56,1.062s-1.218-2.049,1.54-3.413c2.773-1.359,5.218,0,6.836,0s.166-4.7-2.764-5.446-4.227-2.58-8.624-5-2.112-3.487-3.41-6.66-4.07-12.581-6.512-14.244-5.039-1.212-7.472-2.873a16.547,16.547,0,0,0,.488,6.508M181.7,135c1.062,3.024,1.218,1.132-.9,4.461s-.9,4.547-2.358,7.047-5.362,5.834-4.146,7.5,5.123,2.648,6.752,3.937,3.249,3.935,6.172,2.952a31.918,31.918,0,0,0,5.94-2.729c2.038-1.057,3.742-2.269,3.658-4.922s-.163-3.93.658-3.7,2.108,1.436,2.757-.3a16.026,16.026,0,0,1,3.174-5.375c1.379-1.362,5.362-2.73,7.234-4.316s5.046-3.329,5.935-4.692-1.629-2.425-3.168-3.036-3.331-3.024-6.913-3.024-5.529,2.725-5.366,1.513-2.441-1.818-3.9-2.35-2.848-1.361-7.487-.831a52.318,52.318,0,0,0-10.246,1.894c-3.17.907,1.141,2.948,2.2,5.985m105.868,36.271c-.481.676-2.6,1.363-3.9,2.873s2.761.687,4.059,1.137,2.28,1.736,3.337,2.122,6.752.6,9.11-.535,2.594-1.513,2.353-2.038a35.457,35.457,0,0,0-8.295-6.895c-3.417-1.818-3.5-1.888-4.225-1.438s-1.951,4.084-2.441,4.772M272.2,135.828c-2.2,1.1-3.8,2.417-.075,4.318,3.733,1.885,4.962,3.483,7.481,5.073s3.576,6.131,8.863,4.089,7.4-4.467,8.141-6.591c.717-2.122-.74-2.571-2.038-4.547s-1.625-2.8-4.311-2.5-3.581.308-3.581.308a15.006,15.006,0,0,1,4.719-3.714c2.927-1.441.481-2.423,1.867-3.785s-3.492-2.042-5.6-1.516-2.2-.15-5.7-.3-9.022,3.029-8.783,4.161,2.848.687,5.287,2.047,3.17,1.214.731,5.073-3.739-.907-4.554-1.516-.159-1.738-2.446-.6m-15.6-6.964c-3.651.342-4.887,2.872-3.5,3.252s2.273-.381,4.467,1.97,4.15,3.635,5.041-.227-.4-5.534-6.011-5M197.88,99.553c-4.073,3.261-4.874,5.834-8.043,7.884s-2.444,3.785-1.382,4.912,4.225-.07,5.688-.826,2.682-2.65,3.576-1.513,4.638-3.86,6.1-5.534,3.737-3.4,4.152-3.324-1.4,1.969-.737,3.555,3.571,1.668,6.178-1.057.247-5.226,2.28-7.345,3.737-1.822-.241-3.716-6.51.231-7.326,1.218-2.273-.612-10.247,5.747m24.8,5.153c-2.3.109-3.329.456-7.154,2.119s-5.446,5.985-6.337,8.332.4,2.349,3.9,3.71,8.375-.375,9.507-3.635,2.532.758,1.877,2.423,2.439.15,3.9-.61,5.85-1.055,6.178-1.055-3.576,2.952-7.406,4.239a53.862,53.862,0,0,1-7.968,2.119c-1.057.156.987,1.742,5.448,2.653,4.477.907,7.159-2.729,13.587-5.153s6.1-2.879,8.209-2.269,4.391-1.06,6.993-1.672,3.655.386,4.8-3.48,3.165-7.572-.492-7.8-3.9-.225-4.391,3.941-.815,1.593-.815,1.593-2.441-3.635-3.9-5.534-2.521-4.842-4.145-6.433-2.36.681-4.881,3.485-.486,3.86,2.035,5.073,4.309,4.316,3.092,5.148-2.605-.15-7.238.381-4.472-1.438-5.775-2.044,2.192-1.892-2.771-3.935-4.622-1.674-6.258-1.593m-15.041,3.941c.515-.878-6.171,3.937-7.188,5.488s1.017,1.286,3.05,1.211,2.439-3.785,4.138-6.7M220.491,98.61c-1.672.751-1.672,1.323,1.051,1.624s4.316-.907,3.744-2.042-3.455-.188-4.8.418m13.861-14.381c-1.784.3-7.072,2.155-7.361,3.056a7.209,7.209,0,0,0,.858,4.436c.815,1.548,1.105,1.779,5.647.567,4.558-1.212,7.689-3.56,6.178-3.98s-2.43-1.1-3.769-1.278,1.173-.914,4.18-1.858,4.027-2.578-5.732-.942m-15.4,2.38c-1.287.59-1.752.6.933,1.631s5.572.944,5.2.113a4.475,4.475,0,0,0-6.135-1.743m10.483-7.458c-2.541,1-3.122,2.836-3.7,3.556s2.886-.526,4.467-.907,1.953.561,3.5-.8,4.594.045,7.361-.567,3.206-2.419,2.6-4.005-6.954-.156-14.235,2.723M257,86c-.749.361-.488,1.55.166,2.956s.814,1.055,2.194,1.586a10.639,10.639,0,0,1,3.086,1.969c.334.343.526.456,1.1-.907s-.286-1.137-1.829-2.954S258.954,85.055,257,86m9.394,11.889c-2.108-.574-3.292.644-4.07,1.019s.408,1.248.937,2.873.08,2.165,3.17,2.391,4.027-.342,4.268-2.31-2.355-3.442-4.306-3.973m11.994,3.56c-1.913-1.4-2.847-2.541-4.8-1.743s-.329,1.777-.329,2.312,2.36-.075,2.4,1.212.767,1.813-2.074,1.969-3.626.036-4.72.867,2.119-.111,3.1,1.175,2.643,1.438,5.362,1.025,6.423-1.025,6.423-1.025a21.842,21.842,0,0,0-2.8,3.217c-.81,1.325-1.137,3.218.284,4.161s1.586-.976,5.534-1.057,5.119-2.117,5.119-2.117a3.708,3.708,0,0,1-.771-2.841,7.874,7.874,0,0,0-.043-2.425,16.355,16.355,0,0,1,1.951,1.593s-.283-1.175-.853-3.3-.116-2.273-.733-5.148-.488-3.485-3.453-3.41-5,1.105-7.449,1.105-3.5.451-1.7,1.362,2.038,2,2.886,3.025.69,3.485.735,3.37-4.066-3.329-4.066-3.329m-14.841,10.789a1.237,1.237,0,0,0-.13.052,3.535,3.535,0,0,0-1.742,2.94c-.08.987,1.631.413,4.354-.531s1.384-3.7-2.482-2.46m38.38-5.15a20.058,20.058,0,0,0-5.368,4.356c-1.3,1.475-.159,1.663,3.211,3.369s6.995,2.042,8.576.261-.73-11.093-6.419-7.985m15.69-13.21c-4.327.429-2.986,1.071-7.989-.569a46.955,46.955,0,0,0-12.988-1.824c-1.709,0-.91.8.86,3.7s2.251,3.914,5.913,3,6.643-1.529,9.33,2.328,4.086,5.062,1.888,6.478-1.164,3.687.122,6.646,4.205,2.832,8.3,2.832,29.943-.392,33.969-1.132,7.621-4.145,9.759-5.677,3.292-3.921.365-5.684-7.079-3.4-10.371-3.4-6.1,1.7-11.1,2.214-3.9,2.9-8.413,3.015-2.323,2.1-7.871-.173-9.638-5.114-7-5.511c2.618-.4,4.751-.735,3.288-1.987s-4.028-4.658-8.055-4.256M265.9,72.753c2.682.907,3.358,1.588.365,2.38s-5.309,2.9-2.317,2.5,5.55.283,9.389.91,3.535.224,5.246,2.385,3.539,2.156,6.165,1.534,2.981-.8,1.282-2.675-3.481-5.33-5.8-6.7-4.268-3.3-6.591-3.063-2.865.279-4.878-2.444-3.594-1.427-6.526-.687-3.86,2.83-5,3.751c-2.317,1.877,5.979,1.191,8.66,2.1m35.132-27.827c-3.174,3.971-5.736,7.322-2.144,7.719s5.185-.283,5.432.86c.247,1.125-.612,1.924-5.977,1.924s-3.717,1.2-.731,4.713,3.3,2.326,7.867,2.215,6.1-1.765,9.883-.79,4.939,1.931,1.523,2.95-11.47,2.948-9.638,4.654,7.5,5.791,10.065,6.194,3.1-1.706,8.661-1.084,4.207,1.2,4.813-.338,3.662-5.448,4.27-6.875,2.138-2.326,5.184-3.007,4.027-1.647,1.16-2.67-6.1-1.477-5.793-2.269,2.074-3.126.848-4.322-3.165-1.137-4.756-1.758-3.351-3.519-5.368-4.767-3.775-1.368-6.221-3.24-6.339-6.444-11.216-6.188c-3.286.166-4.7,2.1-7.862,6.078m-6.23,33.222c-1.218.62-4.263.735-2.006,2.607s1.647,1.935,4.5.856c2.875-1.082,7.02-3.753,7.39-4.547s-2.868-2.326-5.067-3.007-3.716-2.441-8.295-3.694c-6.65-1.811,4.7,7.152,3.474,7.785M444.017,19.069c-5.039-1.368-23.089-4.853-28.943-3.49s-5.536-3.025-13.664-1.963-20.65.451-24.552,1.057,1.947,2.273,4.062,3.635-10.079-1.513-19.356,1.062-15.288,3.935-5.357,7.721c9.915,3.785,11.216,4.847,11.216,4.847s-12.684-2.273-18.052-4.391-2.435-1.969-12.527.907c-10.076,2.873-19.835,4.4-19.347,7.42s8.134,7.122,13.171,8.177,15.452-1.511,16.268-1.817-4.07,4.091-4.07,4.091,5.2-1.062,11.057-2.578,10.406-3.176,15.942-5.148a48.383,48.383,0,0,0,6.5-2.575s-9.593,7.428-16.262,10a72.919,72.919,0,0,1-19.354,4.4c-4.064.15-3.421,2.723.651,4.847s7.152,6.66,9.269,8.171a6.381,6.381,0,0,1,2.439,3.941,11.273,11.273,0,0,0-13.335,0c-7,4.992-6.02,7.572-4.23,8.179s7.968,1.211,9.1,3.329,9.273-1.969,9.273-1.969-4.061,5.148-7.969,5.148-3.737-3.329-9.432-2.723-5.368,1.972-2.922,3.935,4.391,2.578.161,4.547-6.183,2.573-6.344,5,5.529,2.423,9.1,2.423,6.991-.309,13.5-.456,5.686-2.273,8.128-2.273,4.878.756,3.9,3.179.971.912,8.136-1.661c7.147-2.575,3.893-6.521,3.415-7.878s-3.093-1.817-4.719-2.573,4.88-7.426,3.9-9.689c-.966-2.274,7.973-.461,12.034-5.759s2.607-9.239-.322-10.145,5.373-.3,7.968-1.822,8.3-3.326,10.574-6.2,3.09-3.941-2.434-3.329,7.957-2.425,14.467-6.671,13.99-9.233,15.608-10.444,3.1-.612-4.552-.15-16.752-.606-11.706-1.212,20.006-2.425,23.911-5.3a46.46,46.46,0,0,1,5.682-3.785m-91.063,105.1c-8.141-.762-20-2.723-22.445,4.236a217.02,217.02,0,0,0-6.5,25.3c-.324,2.875,9.759,7.115,16.75,7.415s18.383.758,16.1-.9-.327-2.575,6.176-2.273,7.159-1.362,7.159-2.725,1.137,1.661,5.69,4.086,8.461,9.242,12.525,13.18,13.169,9.235,11.385,12.27,1.945,13.63-12.043,16.053-14.8.751-14.63,3.937.8,4.542,6.339,4.542,13.174-4.542,15.776-1.212,6.176,4.542,8.461,5.3-2.766,2.112-4.07,2.573,2.766.907,10.734,4.692,17.56,4.241,12.843,1.518-6.988-7.721-9.1-9.394-.161-.3,3.581.612,7.154,3.935,8.778,5.3,2.439-.451,3.578-5.759-.485-5.3-6.832-9.534-8.291-7.571-8.944-10.607,3.254-3.637,4.885-5.758,6.181,3.791,9.271,7.27,5.682,9.545,8.13,5.153,4.7-14.238,4.7-16.511-2.432.148-12.835-5-15.781-7.115-16.75-7.115,2.759-1.97,7.318-4.241c4.542-2.274,6.5-1.963-3.261-11.207s-12.52-11.207-18.864-11.814-8.128-7.27-12.681-9.539-15.127,2.723-18.22,3.485-2.113,1.963-6.017-3.635-6.986-9.695-6.986-9.695m7.313,0c-4.043.485,2.441,7.871,7.642,8.182s9.6-2.273,10.735-2.578-12.034-6.365-18.378-5.6m-18.252,75.114a38.731,38.731,0,0,0-2.562,9.319c-.247,3.066-.735,3.517-1.341,5.448s1.953-.34,3.662,2.5.966,3.635,4.023.343,6.466-4.429,10.728-3.067,7.565,1.929,6.1-.676-3.415-2.392-6.344-5.91-5.119-4.429-8.777-5.8-4.032-5.679-5.491-2.16M372.7,464.65c-1.259-2.628-3.152-6.886-11.061-8.356s-10.58,1.47-13.5,2.457,2.73,1.468,6.492,0,6.628-.318,7.143.358c.5.681-1.271,1.091-1.908.37s-.769,1.767,3.485,3.3,5.285,2.269,5.715,4.091.392,2.8,1.357,4.322,1.336,2.167-.451,2.83-1.157.579.156,1.395a17.4,17.4,0,0,0,7.69,2.476c3.716.318,4.942,1.01,2.358-2.391S373.1,465.476,372.7,464.65m11.814,16.632c2.058,2.112,1.463,4.408,1.318,5.618s-2.364.275-6.449-.8-3.458-.552.091,1.363,5.845,1.447,5.69,4,3.26.236,4.767-1.245,1.4-.166,7.71.783,7.6,2.09,6.6-.676,2.889-2.541-2.712-5.18-19.354-6.264-17.015-3.86m-17.957,1.577c-2.374-2.629-5.341-3.009-5.368-.773s.8,2.1,2.993,2.714c2.208.61,3.893-.27,2.374-1.942m45.808,11.4c-2.578-.885-3.109,1.055-1.393,2.675s4.352,1.057,6.948.932-1.05-2.058-5.555-3.606M382.69,177.3c-3.421,1.443-5.427,2.441-2.439,6.36s4.762,6.36,5.91,3.522,2.323-12.327-3.471-9.883M355.312,219.35c-5.153.83-6.836.98-6.02,3.866s2.2,2.417,5.688.676,5.942-5.448.333-4.542m10.73,4.391c-.88.266-1.137,2.273,0,4.086s3.329-.6,4.311-2.8-1.057-2.273-4.311-1.286M309.772,83.961c-4.874.161-12.2,1.886-8.136,1.961s7.406.912,14,.536,7.229-.837,7.4-4.016-4.306,1.212-13.255,1.518m-30.49-26.73c-4.976,1.543-3.742,2.573,2.108,5.146s6.02,1.362,5.373-3.485-4.552-2.573-7.481-1.661M626.866,183.975c-6.162,1.72-8.227.692-9.394,3.817s-3.583,1.448-4.976,1.833-3.362,9.107-4.338,7.808a23.687,23.687,0,0,1-2.752-5c-1.414-3,.468-2.466-2.24-5.625s-8.066-2.8-8.447-1.507,3.7,2.383,2.317,3.841-4.7,3.26-5.963,4.316,2.414.594,4.719.054,3.884,1.731,4.826,3.34-1.057,3.181-2.053,3.962,3.351.6,5.089.917,2.648,1.786,1.464,3.755,5.167.277,8.69.075,4.442,2.412,9.759.746,7.857-1.552,12.7-5.139,4.472-2.752,7.689-5.066,2.446-3.025,2.58-5.588,2.122.719,1.368-3.154-4.726-2.82-7.5-3.12-2.677-2.478-4.07-3.165-3.229,1.153-9.475,2.9M1038.548,517.6a12.154,12.154,0,0,0-.654,4.012c0,2.049-.241,4.247-.08,6.285s.284,3.485,1.422,3.941a3.777,3.777,0,0,0,3.785.039c1.87-.871,3.621-2.425,2.686-4.772a63.956,63.956,0,0,0-3.7-7.3c-1.014-1.738-2.965-3.935-3.453-2.2m-1.491-2.807c.2.867.477.687.89,1.287s.853.075.284-.721-.5-.889-.5-.889-.724-.247-.724.47m175.626,120.724c-.027.091-.134.141-.2.216-3.34,3.378-6.374,2.434-12.112,4.213-5.851,1.813-15.98,7.722-16.715,10.339s0,2.95-.728,2.605a8.894,8.894,0,0,1-1.958-1.929,12.394,12.394,0,0,0-1.218,6.02c.365,2.838,1.706,4.543,1.586,8.18s-1.463,5.79-1.339,8.288,4.263,7.27,5.368,10.229,1.829,2.158,2.433,7.5,3.417,8.286.606,11.127-4.872,2.269-1.459,5.223,6.226,4.885,11.706,2.954,4.032-3.635,8.3-4.547,5.123-1.811,8.779-2.042,6.219.111,7.571-2.494c1.336-2.62.359-2.5,4.016-4.322s3.292-2.274,5.738-2.723,4.021,1.255,7.313-1.362.853-2.841,8.171-2.841,10.376,1.028,13.053,1.929,7.077,3.294,8.172,5,2.564,3.753,3.045,3.753,1.107.107,2.811-1.591a72.928,72.928,0,0,1,6.583-5.11s-.245,3.633-1.341,5a6.42,6.42,0,0,0-1.1,3.978c0,.676,2.809-2.167,3.179-2.274s.731,5,1.094,5.448,1.47.227,2.562,1.7,2.564,2.619,3.664,5.455,5.731,5.677,8.659,6.128a24.235,24.235,0,0,0,7.683-.111c2.192-.34,2.317-2.956,4.635-1.926s-.12,3.174,5.368,2.723,6.952-2.274,9.146-3.753,2.441,2.049,5.245-1.811,3.292-2.954,3.782-7.615.365-5.564,3.045-10,3.3-2.274,5.132-8.74,4.143-12.611,3.9-17.95.113-1.815-1.1-7.841-.365-5.33-4.268-7.828-4.874-1.826-5.856-5.341.247-4.547-1.586-4.547-3.417.792-4.511-1.588-.971-3.294-3.045-5.566-4.021-1.818-7.807-3.517-1.84-2.162-1.84-5.117.215-6.092-2.8-7.456-1.219.755-1.219-4.093,0-4.161-2.439-4.994-3.254-.753-4.8-3.714-3.576-7.8-4.305-9.759-1.624.225-2.605,1.663a15.232,15.232,0,0,0-2.36,7.571c0,2.95,1.3,4.622,1.3,8.559s-2.761,7.871-4.474,10.144-3.086.225-4.554-.383-1.786-2.8-4.876-4.316-8.777-2.872-11.383-5.219-.815-2.426,0-4.847a12.362,12.362,0,0,1,3.9-5.986c1.953-1.588,1.384-2.2-1.055-3.558s-5.856-1.438-10.006-1.438-6.585-.3-6.344,2.047,2.682,3.249-.8,2.575c-3.5-.687-6.51-.987-8.055.674s-1.878,2.659-2.766,6.215.247,3.78-1.218,3.78-7.238-2.8-9.191-3.624-3-.76-5.282,1.362-10.167,9.006-13.094,10.671-2.771,1.287-5.738,10.6M1104.126,533.3c-1.727-.236-2.686-.687-.574,2.037a32.363,32.363,0,0,0,4.719,5.153c2.033,1.893,2.766-1.368,4.311,2.269s.976,3.71,2.521,5.073,2.847,1.749,3.249,3.109a9.5,9.5,0,0,0,2.685,5c1.792,1.509,1.792,1.286,2.843,4.234s2.686,5.071,3.5,7.572,5.448,4.847,7.8,7.878,6.349,7.42,7,6.206,2.355,0,3.576-.449,1.625-2.2,2.439-6.441-.733-6.208-1.874-7.2-3.251-1.209-3.814-2.119-1.545-4.009-2.927-5-1.717.077-1.717-2.348,1.629-2.192-.4-3.553a10.829,10.829,0,0,1-2.931-3.031c-.646-.68-5.037-1.743-6.178-2.956s-5.931-3.412-8.209-5.682-4.8-4.087-5.529-5.749-3.013-3.034-10.488-4.011m47.321,48.839c-1.945,0-2.922-1.137-4.225,1.21s-1.137,2.35.894,2.35,1.627,1.062,1.541,1.362-.971-.231,3.172,1.436,7.079.987,8.216.376,1.543,1.518,7.24,2.423,8.7-.524,12.354.383,2.771-.456.166-2.419-2.36-.91-4.965-2.8-6.258-1.967-7.964-2.273,1.461,1.817-3.737,1.13-3.335.461-6.022-1.28-2.686-2.044-4.477-2.35-2.192.456-2.192.456m41.309,8.327c-1.463.456-4.472,1.293-3.088,1.893s.316.987,4.633.606,8.053-.907,8.617-1.818-.728-.3-2.525-.839-1.624.383-4.066.687a5.251,5.251,0,0,1-3.571-.529m15.127-.306c-2.884.356-2.525.987-.245,1.674a11.753,11.753,0,0,0,6.1.526,28.03,28.03,0,0,1,5.126-1.438c3.168-.531,4.225-.456,6.739-.762l2.532-.3s-.247-.524-1.956-.451-2.918.152-4.635.152-4.633,1.513-5.854,1.436-3.572-.83-4.146-.454-.562-.756-3.657-.381m16.264,3.712a.525.525,0,0,0-.109.075c-2.01,1.377-2.094,1.758-1.913,2.85a2.066,2.066,0,0,1-.22,1.588,8.638,8.638,0,0,0,5.217-2.414c2.258-2.273,2.35-2.24,4.66-3.065a17.666,17.666,0,0,0,4.944-3.347,14.632,14.632,0,0,1-3.839.225,7.21,7.21,0,0,0-4.638,1.588c-.638.54.631.687-4.1,2.5m-17,1.193c-2.117-1.516-4.171-1.3-4.327-.367s-1.833.878,1.153,1.988,5.829,2.555,5.613,1.044-1.522-2.015-2.439-2.666m-19.432-63.132c-1.223,1.745,1.139,1.287-.653,2.8s-3.165.83-4.951,3.1a25.669,25.669,0,0,1-5.613,4.7c-1.137.837-4.8,1.811-6.43,4.018a2.167,2.167,0,0,0,.574,3.4s-.982.452-3.583-.531-2.761-2.192-2.761-2.192-1.872-.073-2.923,2.723-1.634,3.1.233,4.774-1.293,1.736-.891,2.872.413,3.263,1.545,3.488,1.384-1.062,2.771.679.241,6.659,2.026,6.891,3.09-.531,4.635.148,2.68,1.289,4.719.608a6.981,6.981,0,0,1,5.287.6c1.051.606,4.872,1.894,6.745,1.742s2.194.307,2.519-2.346.086-5.148,2.36-7.193,2.358-2.047,2.521-3.941.166-3.86,1.548-5.829,2.194,1.137,2.929-.377,1.463-1.507,1.051-2.271-2.521-.762-3.331-2.2.247-2.2-.735-5.148-1.538-1.818-.161-3.487,2.521-1.967,2.68-3.252.731-1.368,2.448-2.575c1.7-1.212-.275-.644-1.9-1.854s-4.67-5.754-6.564-5.718c-1.019.018-4.88,4.617-6.1,6.36m240.272,160.756c-.785-.572-1.454-.15.336,1.967s1.947,1.514,3.084,1.588,2.119,4.247,2.761,5.309a18.385,18.385,0,0,0,1.872,2.344s.66,4.54.086,6.589-1.79,2.95-2.194,4.847,1.867,1.362,3.335,1.967,1.218.608.651,2.271-2.28,2.423-2.28,2.729,3.335,2.192,5.046.148,4.381-5.071,5.126-7.265c.724-2.2-1.309-1.216,1.051-2.8s2.031-.837,3.254-2.8,2.514-4.014,1.137-5.073-2.923,1.286-4.157,1.742a4.26,4.26,0,0,1-3.9-.306c-1.706-.831-2.033-.831-2.682-2.349a8.478,8.478,0,0,0-1.464-2.348s-.493,2.575-1.706,1.749-.9-1.749-1.79-3.186a30.07,30.07,0,0,1-1.47-2.949c-.561-1.06-.08-3.109-2.922-3.41s-2.446-.225-3.179-.756m.492,27.491a30.847,30.847,0,0,0-4.306,4.769,20.88,20.88,0,0,0-3.008,5.375c-.649,1.514-3.007,3.331-6.913,5.375s-5.371,2.879-6.669,4.772-5.936,7.8-6.5,8.484,2.189,1.361,5.041,1.361,7.313,2.573,9.754-.073,4.88-8.94,6.424-11.209,3.007-3.1,5.448-5.3,6.5-6.285,6.5-7.878a14.665,14.665,0,0,0-1.057-4.161,3.063,3.063,0,0,1-3.015,1.514c-2.112-.227-1.706-3.027-1.706-3.027m-19.173,29.086c-2.859-1.513-3.415,1.3-3.877,4.193s1.232.433,3.716-.871,1.248-2.745.161-3.322m-96.7-19.853c-3.217-1.071-2.68,1.974-2.194,4.241a16.832,16.832,0,0,0,2.359,5.979c1.219,1.9,5.772,2.575,7.569,1.749s3.081-3.637,4.872-6.29,2.6-5.679,2.28-7.265-2.6,1.436-4.071,2.117-3.415,2.425-6.176,1.667-3.5-1.818-4.638-2.2m-40.49-162.575c-2.6.608-3.9-1.666-6.02-6.058s-3.737-4.992-9.1-3.031-4.552,1.52-.976,2.879,4.07,1.818,4.552,1.818,5.695.756,4.552,1.511-6.017,1.515-2.929,3.637,1.792.608,9.926,4.7,9.432,1.062,12.039,6.36,2.6,4.391.483,5.759-4.881,2.721-3.739,2.873a74.678,74.678,0,0,0,8.779.91c5.534.3.327,3.481,6.5,3.481s7.808-1.97,10.247-4.847,2.929-1.362,8.128-.152,7,5.756,13.5,7.572,9.267,4.243,5.2.456-5.527-6.51-11.061-10.905-5.851-4.847-7.476-8.177-7.318-7.274-13.657-9.845-9.974-2.934-17.4-5c-7.646-2.117-8.944,5.455-11.545,6.058m-42.784-15.141c-2.434,1.7-2.734.66-4.558-.467s-1.312,2.355-5.366.467-5.566-2.831-9.925.383-1.62,4.524-1.727,6.784-3.646,8.679-4.964,11.038-1.305,3.206-.3,4.719,2.434.937,3.04,1.7,0,6.7-.715,8.676,1.727,2.358,4.259,1.792.306-.751.306-2.825,1.212-3.02,1.212-6.891v-5.652s.712-.381,1.624.937,2.231,5,3.34,6.891,2.226,3.3,3.953,1.972,3.335-2.825,3.335-2.825-3.335-1.034-3.335-2.171,1.414-2.071-.919-5.845-3.537-3.964-.6-4.15,2.836-3.115,4.552-3.962a8.683,8.683,0,0,1,4.157-.563,4.527,4.527,0,0,0-4.356-1.041c-2.634.751-4.965,1.132-7.2,2.36s-4.157,1.981-4.558-.284a15.553,15.553,0,0,1-.4-5.947c.306-3.109,3.846-.751,6.484-1.5s2.639-.57,8.407-.193,6.178-.946,7.9-3.3a24.12,24.12,0,0,0,2.732-5.1s-3.948,3.3-6.378,5m13.675-8.255c.515-.941-4.23,3.252-5.121,4.089s0,2.044.644,3.26.492,5.373.733,6.278,2.687,1.742,2.687,1.742-.08-2.8.81-4.082,0-2.879,0-5.225-1.3-3.258.247-6.061M1233.66,568.3c-3.734-1.427-5.126-.488-5.126,1.463s-.413,2.924,3.56,2.924,8.474-1.754,1.566-4.386m7.433-1.266c-.917.288-1.883,3.217-1.357,4.965s1.146.59,3.242.2,1.77-2.042,4.386-2.239,8.061,1.849,8.061,1.849,1.153-1.362-3.024-3.991c-4.193-2.636-6.088-2.439-11.308-.781m-74.4-96.324s-3.739.105-4.311.105-1.872,1.448-2.8,2.017-.935,1.357-.281,2.83,1.743,1.554,3.571,2.049,1.182-.794,2.526-1.287,1.706-1.7,2-2.8a4.236,4.236,0,0,1,1.5-1.974c.32-.375-1.057-1.663-1.057-1.781a7.75,7.75,0,0,0-1.143.839m44.032,5.259c-1.468-1.087-2.278,2.729-2.686,4.692s-.9,3.26-.161,4.7.408,1.9.408,1.9l-2.119-1.6a13.614,13.614,0,0,0-.567,3.41c0,1.593-.654,2.274,1.79,3.41s3.254.524,3.573,2.274.325,2.493,1.956,2.8,3.5.983,4.145,2.051.322-2.809,1.464-2.578,2.446,1.666,3.254,2.954a2.809,2.809,0,0,0,2.026,1.362s-1.865-3.106-1.05-3.487,1.05-.676-1.062-1.967-3.817-.982-5.443-1.212-1.624,1.135-2.847-2.044a9.328,9.328,0,0,1-.241-5.833c0-.676.889,1.062,1.87-1.137a11.559,11.559,0,0,0,1.051-6.054c-.161-2.117,1.463-2.954.243-3.029s-4.8,0-5.605-.606m19.347,40.692c.247,1.534-1.457-.427-2.1.452s-.974.706-2.01,1.137a21.607,21.607,0,0,0-3.535,2.755s-.032-1.5.027-1.845-.762-2.1-1.523-.91a6.989,6.989,0,0,1-3.206,2.809,4.906,4.906,0,0,0-2.981,3.633c-.22,1.534,1.033,1.48,1.033,1.48a9.71,9.71,0,0,0,1.8-2.274c1.126-1.758,1.336-1.7,3.38-1.96s1.886-.229,2.535.878.15,2.789.209,4.011-.059,2.691,2.038,3.406,1.1.059,3.024-.114,1.893-.116,1.613-1.082a16.987,16.987,0,0,1-.982-2.95c-.116-1.135,1.112-1.618,1.5-1.843s.644,1.135,1.223,2.552.821,1.364,1.067.284.91-3.63.671-5a19.067,19.067,0,0,1-.367-3.547,4.417,4.417,0,0,0-1.495-2.895c-.552-.4-2.441-2.071-2.441-2.071s.281,1.559.515,3.093m-9.357-9.271s.043-.964-1.722-2.7-1.811-2.235-4.508-2.7-5.384.236-4.247,3.126,1.47,3.313,3.746,3.664a4.7,4.7,0,0,0,3.658-.89s.172.46-1.977,1.811-2.4,3.932-.715,4.933,1.641,2.543,2.612,1.768,1.679-3.426,3.656-5.275,2.1-2.119,2.36-4.086a15.584,15.584,0,0,0,.043-3.544Zm4.606-5.548c-.247.191-1.65-.147-.186,1.277s2.8,1.729,2.62,2.777-.057,1.255-.878,1.134-1.071-.309-1.436-.334-.42.681-.179,1.336.179-.088.88,1.017.52,1.48.735,2.757.762.653.762.653-.182-3.067-.093-3.689-.245-2.135.79-1.65.76,2.3,1.371.6a7.818,7.818,0,0,0,.039-4.574c-.306-1.366-1.379-1.422-2.629-1.422a9.538,9.538,0,0,0-1.8.12m-21.036,5.248c-.6.15-.98.74-1.344,2.818s-1.527,3.151-2.772,4.366-4.644,4.49-4.822,5.144-.22.25,2.317-.944,4.542-2.777,4.837-4.4c.317-1.62-.3-.622,1.937-1.674s1.094-1.393,1.186-3.047-.22-2.551-1.338-2.267M1338.922,569.1c-.274,2.106.606,2.734-1.346,4.279s-4.143,1.554-6.224,1.9-.558-.343-3.126-.418-3.219.113-2.033,1.4.891,2.536,4.672,2.387,6.911-2.194,9.355-2.95,2.237-2.73,2.439-3.635-3.456-5.23-3.737-2.959m10.566,4.545c1.044,1.486.647,1.255,1.988,3.219s3.463,2.312,5.046,2.843.005-.57-1.175-2.156-1.266-2.466-3.015-4.055-4.674-2.46-2.845.15M1212.151,446.321c-5.212,3.315-7.562,3.068-5.484,7.27s3.37,5.985,3.657,6.779,1.341-.529,2.755-3.86c1.43-3.335,1.591-7.69,2.162-9.008s-1.3-2.317-3.09-1.18m89.241-163.367c.574,2.2,1.137,5.6-.161,5.979s-2.2,2.8-2.519,5.307-.976,5.673.4,7.647.408,2.112.408,3.785.488,5.9-.327,8.4-1.3,3.1-.971,5.754,0,3.179,0,6.97-.241,6.811-.08,8.323.971-.751,1.539-1.282a3.349,3.349,0,0,1,3.984.456l1.228,1.286s1.945.831-.735-4.923-3.168-4.542-2.439-9.768,1.136-5.3,3.9-5.834,4.227,3.26,4.558,3.635-.245-1.287-1.221-4.236-1.872-3.935-2.194-7.646-1.468-6.821-2.929-7.878-.728-2.8-.081-4.241a11.906,11.906,0,0,0,.576-6.133,64.754,64.754,0,0,0-1.464-7.347c-.413-1.362-2.036.831-2.036.831Zm-2.439,58.008a7.267,7.267,0,0,1-.81,5.067c-1.143,1.894-.327,2.348-.975,5s-3.825,0-3.825.536a5.5,5.5,0,0,1-1.3,3.1c-.81.683-3.583.837-2.768,3.488a37.517,37.517,0,0,0,2.283,5.445,13.18,13.18,0,0,1,2.108-1.661c.494-.148,1.792-.526,1.792-.526s-.241-.76-2.033-1.593a2.44,2.44,0,0,1-1.382-3.1c.245-.538,2.519.148,3.984,0s2.686-.912,4.477.524a11.915,11.915,0,0,0,4.392,1.974,13.4,13.4,0,0,1,1.13-3.637c.815-1.511,3.176-.837,5.536-1.511s4.143-1.06,3.335-2.049-.735-3.179-1.23-4.847-2.031-.075-3.249.531-2.761.15-4.391-.906-4.552-5.073-5.609-6.666c0,0-1.629-.83-1.463.839m-7.281,24.832c-.772.379-1.766,2.385-1.582,4.6s2.069-.172-.37,6.644-3.662,8.348-6.038,10.113-4.568,1.759-5.486,1.3.247-1.992.917-2.446-2.081-.622-3.233-.449-.066,1.479-.189,2.55-2.375,3.98-2.128,5.287.241,1.706-1.223,2.156-2.434-1.084-2.863-1.309-2.621.4-5.491.794-3.592,1.363-4.815,3.471-4.091,2.439-6.16,3.231-1.282,3.755-3.54,4.774-2.258,2.895-2.439,4.429,1.4.456,1.647.343.245-2.162,1.652-1.931,1.581.279.846,1.872-1.151,2.385-1.883,3.748.241,1.988,1.336,3.358,2.14-.4,4.45-2.843,2.505-3.015,2.323-5.8-1.107-2.843-2.805-3.632-2.079,0-.188-2.167,2.746-.054,4.029-1.017,4.391-.912,7.377-1.647,5.861-1.7,5.978-.74,1.041,4.2,1.153,4.887,2.087-.966,4.086-1.708c2.017-.74.129-1.071-.057-2.38a2.224,2.224,0,0,1,.917-2.047s1.041,2.16,4.266.626,3.481-2.16,4.333-1.936,1.406,1.084,2.739.231,1.595-.059,1.346.628,3.905-1.307,4.817-1.929.427-.059.059-2.444-1.525-2.553-.848-5.622a26.981,26.981,0,0,0,.669-5.285c.179-1.931.912-2.21,1.4-2.328s.5-2.67,1.523-4.027.792-1.99.792-5.116-1.709-2.559-1.82-4.767a16.6,16.6,0,0,1,.417-4.375s-3.474,1.307-3.834,2.1l-.375.794s-.542-.569-1.7,0m-22.764,34.128a63.607,63.607,0,0,0-8.279,1.668c-2.14.687-2.6,1.625-2.262,3.758a44.25,44.25,0,0,0,1.463,5.384c.3,1.11,1.464,0,3.474-1.067s1.883-4.188,3.807-4.188,1.213,2.224,3.8-.9.629-3.378.71-4.953-2.714.293-2.714.293M1496.787,231.73c-3.853-.753-4.969-1.586-5.323-.193-.37,1.4-.778,1.86,1.663,2.729s3.656-.642,5.942,1.062,2.922,1.624,4.67,1.4a3.759,3.759,0,0,0,2.439-1.1s-6.462-3.329-9.391-3.9m-44.041-60.672c-1.416.4-2.569-.966-2.2,2.5s1.153,3.86,5.6,3.235,1.1-.168,7.2-.624,7.372-1.307,7.372-1.307a10.712,10.712,0,0,0-2.92-3.292c-2.078-1.588-4.822,1.082-9.52.283a51.726,51.726,0,0,0-5.537-.792m-137.406-51.17c.059,1.328,6.1,5.049,8.291,6.133s3.9.622,8.542.113,5-2.494,5.545-3.63-2.194-.74-5.3-1.362c-3.12-.633-5.673.563-6.771,0s1.645-1.137-1.1-2.16-3.415.336-4.027-.114-.729-1.425-2.071-1.532-3.172,1.307-3.109,2.553m-23.908,7.78c-2.1.842-1.953,1.591.422,3.576s1.593,1.534.554,2.954,0-.059,3.413,1.475,4.821,4.322,6.956,4.944a5.036,5.036,0,0,0,3.6-.17,19.485,19.485,0,0,0-2.745-5c-2.012-2.725-6.349-3.517-7.143-5.9s-2.069-3.072-5.055-1.876m21.769-11.129s-3.106-1.874-7.808-4.83-6.46-3.748-8.048-3.973-1.336,1.65-1.951,3.12-1.035,1.191-3.481,0-4.878-3.007-7.372-3.581-4.023,1.481-6.889,4.322-1.22,3.635,2.256,7.835,5,4.433,7.8,2.78,2.012-2.723,4.029-1.929,8.963-.794,9.21-.794-.427,3.862,2.623,2.843,5.849-1.534,7.256-3.068,2.375-2.725,2.375-2.725M1102.007,35.423c-.89.751-6.1.3-8.783,4.536s-4.547,1.293-5.934,3.866a53.219,53.219,0,0,0-2.521,5.679s2.446,2.881,5.046,2.655a11.542,11.542,0,0,1,9.673,4.391c2.519,3.48,4.392,3.48,10.489,4.461s3.329,1.822,6.508,1.522,7.556.375,6.585-1.216a6.876,6.876,0,0,1-1.3-5.679c.4-3.1,3.245-2.954-.086-5s-5.693-.375-5.529-.756,3.009-1.516,1.872-1.591-6.75-.375-7.4-3.556,1.539-3.415,2.675-3.64.821-.6-2.441-2.948a88.925,88.925,0,0,0-7.635-4.772c-2.033,1.06-.327,1.286-1.223,2.047m30.576,22.939c-2.359.456-4.311,2.805-5.69,4.847a36.831,36.831,0,0,1-5.856,6.51c-1.709,1.362-1.221,1.747,1.545,2.734s7.642-1.747,9.024-1.822,2.439,2.047,6.83,1.511,11.057-1.361,7.808-3.71a68.108,68.108,0,0,1-5.695-4.086,15.728,15.728,0,0,0-8.128-3.1s7.4-2.5,5.614-2.65-5.453-.231-5.453-.231M944.591,21.031c-4.257,1.529-2.766,2.274-5.532,4.472s-.9,2.8,5.046,1.362,6.258-2.047,10.081-3.785-3.251-4.322-9.595-2.049m9.428,10.682c-4,1.768-2.929,3.635-1.867,5.148s3.978-.912,4.79.762,1.059.976,4.8-1.523,2.358-1.736.9-4.386-1.792-3.029-8.627,0m-22.216-1.1c-2.557,1.216-2.557,1.078-.127,2.215s8.357,2.044,11.4.052,2.814-1.586-1.035-2.155-7.383-1.481-10.242-.113m-37.688,4.6a58.683,58.683,0,0,1,10.8-.166c3.163.345,2.006,3.068-3.849,3.7s.552,1.532,4.7,1.361,1.464-3.581,4.944-4.772,5.668-.454,9.811-1.931-2.375-2.895-7.2-2.782-6.4.392-10.487.113S895.449,32.279,891.245,33c-8.66,1.473-1.094,2.553,2.87,2.208m31.092,1.084c-3.485,0-11.887,1.931-4.813,2.612s6.53,1.135,9.453.057-.971-2.67-4.64-2.67m24.652,1.48c-4.967-1.641-5.073-.971-8.913-.8s-5.362,2.559-2.856,3.578,4.2.622,6.273.29,1.951-.964.61-1.481,7.808-.62,4.887-1.586m20.852-6.135c-3.807.472-4.027,1.137-4.39,2.38s.546.966,4.572.456a20.847,20.847,0,0,0,8.538-2.5c2.62-1.42-.547-4.885-.547-5.511s-3.717,1.879-4.756,2.78,1.087,1.824-3.417,2.392M672.052,249.479c-1.92,5.3-5.082,7.742-1.341,6.274s7.481-6.027,7.3-2.119-3.841,3.34-2.693,7.17.29,3.506,6.525,4.888,1.148.9,2.688,4.568,2.584,4.806.953,5.867-6.425-3.34-6.709-1.47.665,3.261,1.82,5.867-.769,4.077-4.409,5.786-.483,2.773,2.3,2.612,9.781-1.47,8.627.976-4.5-.409-6.9,3.666-11.233,7.58-6.627,7.336,3.935-1.468,17.657-3.421,4.209-.166,13.228-2.94,6.14-3.506,1.155-2.686,3.263-4.9,2.11-10.183c-1.152-5.3-4.406-.247-6.525-3.592s-1.822-4.316,2.208-3.1,3.648-.81-4.127-5.781-2.972-4-6.521-8.15-9.588-3.669-9.588-3.669a12.2,12.2,0,0,0,4.118-4.563c1.532-3.013,1.824-2.773,3.453-6.433s-1.629-3.342-5.747-2.451-5.475,1.309-4.608-.322a17.016,17.016,0,0,1,3.356-4.322c1.922-2.038,2.3-3.1-1.248-2.28s-4.086.737-7.095,2.119c-4.606,2.119-1.441,5.051-3.362,10.349m-9.689,12.468c-6.267,2.471-4.5,4.079-3.447,4.969s2.97-.815-2.88,2.532-5.945,7-2.879,7.737,2.688-1.792-.567,4.322c-3.27,6.108-5.471,10.269,1.151,8.719s8.434-4.969,11.6-5.378,3.741-2.932,3.741-6.766-2.1-3.909.388-7.09,2.68-6.519-2.215-8.064-.953-2.53-4.89-.98m78.78,85.526c-.336.856.415,3.179-2.117,4.765s1.223,3.036,2.033,4.547,1.87-5.148,1.624-8.331-.481-3.712-1.54-.982m-1.216,12.566c-4.134,1.958-4.386,3.4-4.885,6.516s3.34.6,2.358,3.326-.075,4.166,4.232,1.6,1.87-4.924,2.519-8.186,1.221-5.825-4.225-3.254m63.746,33.467c-3.635-.354-5.246,1.929.975,2.616s9.026.794,11.345.225.361-.113-2.689-2.155-5-.231-9.63-.687m34.633,1.929c-5.008-1.078-3.651,5,1.47,4.1s3.168.338,5.491-3.41-1.711.451-6.961-.687m-124.566-28.2c-4.07.52-4.386,1.9-1.22,2.73s2.763-.152,4.554-1.443-1.539-1.511-3.335-1.287M467.4,293.1c-2.5,1.983-5.368,4.885-8.906,11.245s-3.163,5.682-6.585,9.2-1.7,2.725,8.908,4.772,9.754,3.635,12.2,2.954,2.929,1.357,2.929,3.524,2.31.9,3.41-2.5-1.1-9.545-3.286-13.063-2.693-3.528-6.1-2.616-2.323-.794-3.535-3.519-3.179-.567-.245-4.658,3.657-7.267,1.216-5.341m-324.638-7.267c0,3.379,3.571,9.158,6.258,11.057s2.117.835.9-3.186-.241-4.011-.815-6.584-6.339-2.5-6.339-1.287m17.807,18.478a31.327,31.327,0,0,0,6.58,6.285,23.17,23.17,0,0,0,8.622,3.935c3.9,1.137,5.609-.381,3.088-2.65s-.406-2.047-4.96-3.109-5.521-.676-7.807-2.117-7.072-3.937-5.523-2.344M61.421,266.638c-2.934-.665-4.087-.8-6.1.792s-2.559,2.954-1.459,4.719.422.794,2.981-.964,1.352-1.992,4.581-2.789,2.56-1.877,2.56-1.877a3.53,3.53,0,0,1-2.56.12m-1.035-3.916c-1.974,1.184-2.628,2.155-.431,1.7s1.888-1.7,3.294-1.42,1.894-.281,1.894-.281-2.682-1.255-4.756,0M4.095,253.689c-2.682,1.307-5.225-.225-3.567.765s3.9,1.929,5.668,1.733,2.932-.227,2.289-1.078a2.764,2.764,0,0,1-.851-1.958c-.066-1.2-.853-.767-3.539.538M904.258,623.776c-3.093,6.821-9.6,3.485-14.805,8.482s-4.391,3.485-.486,10.451-3.245,6.21-5.046,14.385,2.117,6.666,4.231,13.632,3.093,4.847,7,3.935a22.722,22.722,0,0,0,6.664-2.723,97.925,97.925,0,0,1,3.251-14.993c2.605-8.933,4.391-15.449,4.88-21.351s.976-10.145,2.285-8.334,1.457,1.818,1.457-1.06-1.561-10.971-4.064-12.87c-4.4-3.335-2.28,3.637-5.362,10.446m4.558-465.838c-4.261.974-6.283,3.581-3.179,4.6s2.805.461,7.932-1.363-.554-4.2-4.753-3.236m79.677-77.387c-1.454-2.274-2.757.76-17.718,7.27s-14.8.907-28.789,11.962-10.9,9.689-11.712,16.362-4.062,3.778-5.368,9.84-8.449,6.362-4.878,11.359,8.289,7.875,15.769,10,9.6-.148,7.98-.912-7.32-9.695-6.183-19.838,4.882-8.634,8.134-12.42,11.706-13.63,17.24-16.965c5.373-3.24,19.677-7.765,26.885-10.242.2-.075.463-.059.6-.2,5.688-6.358-.488-3.935-1.956-6.208m-40.324,68.071c-1.77.252-2.6.306.655,3.485s6.1,5.6,5.035,1.362-4.066-5.071-5.69-4.847m53.416-30.817c-2.375-1.109-3.651-2.273-4.225-.454s2.687,4.241,5.856,4.847.651-3.331-1.631-4.393M441.739,308.4c-3.615-1.811-7.149-3.254-9.509-3.254s.49,2.493,4.227,4.542,7.4-.225,5.282-1.287m-8.613,15.223c.195-3-2,3.449.687,4.885s4.075,1.813,5.783.07.315-.644-2.038-1.055-4.59-1.4-4.431-3.9M1498.537,219.275a18.323,18.323,0,0,1-7.685-.8s-.247,3.53-1.583,5.228a3.345,3.345,0,0,0-.376,3.524s-4.386-1.931-6.941-2.843-4.881-.113-6.349-3.978-5.853-3.174-9.268-3.174-2.433-4.431-2.433-4.431l-2.074.109c-2.081.116-1.711,5.114-4.391,6.7s-11.106,2.618-11.106,2.618,5.368,3.86,6.473,7.04a30.586,30.586,0,0,0,3.167,6.247s-.492,1.481-6.959.225-6.092,1.255-13.046,4.087-14.88,7.161-16.831,8.749-2.076.681-8.173-.792-7.313,1.7-8.906,2.5-.971-3.635-.971-3.635a11.912,11.912,0,0,0-4.883,1.361c-27.8,14.124-8.629,13.378-9.509,16.237,0,.011-2.932,11.02-2.932,11.02-4.087,12.177-6.918,5.8-10.363,15.447-10.979,30.667-17.326-4.729-17.326-12.831,0-5-1.094-11.469,2.08-12.949,27.289-12.709,2.559-1.765,28.172-19.309,8.3-5.679,3.78-9.089,5.609-10.676a11,11,0,0,1,4.761-2.047l-4.513-.451c-4.517-.451-4.64.567-8.179,4.427s-6.339,4.549-5.609,1.588.853-6.015-1.824-4.424-3.785,1.357-8.783,2.385a24.544,24.544,0,0,0-14.878,9.083c-4.517,5.686-1.953,5-.49,6.36s-7.2,1.019-11.342.687-1.96-1.135.484-1.935-3.664-1.475-9.03-2.612-3.294.912-6.457,2.156-3.05-1.132-4.638-1.475-8.661-.794-13.657-1.368-4.638.343-5.978,2.049-10.614,9.888-14.641,14.542-9.024,5.679-13.537,9.993-5.246,4.086-1.59,4.772,4.15.334,4.756,3.744,2.323,4.542,6.226,4.542,2.805,1.023,3.533-1.929-.976-6.357,2.323-3.75,5.974,4.547,6.948,8.3-.247,6.471-1.951,12.724-2.317,15.218-4.64,19.76-4.143,7.951-6.707,12.949-15,17.605-17.8,18.739-4.633,1.252-5.977-1.248-2.317-2.047-5.493.794-4.633,4.549-5.849,9.085-3.91,4.545-6.714,7.951-3.533,2.616-1.463,6.476,5.484,7.951,5.854,11.7-1.709,9.2-3.045,11.592-7.685,3.517-7.567,2.38a89.288,89.288,0,0,0,0-10.106c-.245-3.294-2.686-3.294-1.833-4.316s4.4-2.723,1.833-5.116-4.391-.338-5.484-3.176.488-5.114-.118-6.133-2.446-2.155-6.226-2.5-4.64,3.406-5.5.107.375-3.63-1.334-4.99-3.176-.456-7.556,3.292c-4.4,3.746-5.255,2.954-8.912,4.542s-3.658,2.5-2.8,3.753,3.9,6.7,6.46,7.267,4.4-1.139,8.295-1.139c3.916,0,4.638.569,3.662,2.044s-3.662,2.961-8.413,7.728-3.3,3.866-1.709,5.8a33.765,33.765,0,0,1,5.607,8.066c1.711,3.742,0,5.1-.241,7.259s-.611,5.459,2.564,8.869.971,2.269.606,3.517-5.731,11.014-8.171,15.9-2.446,5.336-10.367,10.9-11.469,6.137-15.735,6.923a52.984,52.984,0,0,0-10.124,2.961c-2.194.91-1.346,2.723-1.577,3.86-.257,1.137-2.323.113-1.963-1.593s.129-2.954-.971-3.4a6.919,6.919,0,0,0-8.048,1.588c-3.538,3.41-7.812,3.635-9.276,7.957s-1.212,2.843.375,4.653,9.266,9.2,11.095,13.173,2.2,6.936,2.323,11.247-8.79,12.27-12.688,14.882-4.762,5.108-4.15,1.017-1.706-6.471-4.51-9.541-11.342-5.564-12.933-5.906.608-2.83-.5-2.727c-1.087.12-3.651-.565-3.286,3.412s-2.557,2.723-3.168,6.7-1.346,8.059,1.218,7.723,2.074,3.519,4.027,7.835,1.211,1.935,6.1,5.906,3.656,3.294,4.76,7.272.729,6.247,3.174,9.883,2.559,4.431-1.468,2.38-7.315-4.542-8.908-7.038-2.55-8.865-3.531-12.041-7.562-6.927-9.754-9.2-.858-4.088.241-9.314-.488-10.226-.86-13.4a92.872,92.872,0,0,0-4.148-15.111c-1.218-3.008-.73-2.61-2.623,0s-3.345,4.206-5.178,4.206-4.511-.284-4.27-1.481,2.076-5.733,1.529-7.436-2.264-7.159-4.821-9.089a19.611,19.611,0,0,1-7.138-9.085c-1.645-4.481-2.074-3.179-5.244-.853s-10.433,2.612-13.907,2.9-.606,1.988-1.461,3.694-4.937,3.914-13.169,12.495-9.475,8.858-11.608,9.77-3.463.62-3.394,4.138.379,5.436-.027,8.581-1.341,4.427-2.242,6.435a37.758,37.758,0,0,0-2.144,7.537c-.284,1.888-2.119,4.086-4.8,6.019s-2.68,1.586-3.9-1.252-7.562-13.741-12.683-23.962-3.9-12.042-4.4-15-.585-20.682-.365-22.032c.129-.756-2.476,2.079-3.211,3.517s-.692,3.184-3.615,3.447-3.538.306-6.3-2.46-4.032-4.313-3.549-4.238a15.292,15.292,0,0,0,5.5-1.21c1.822-.912,1.211-1.9,1.211-1.9s-1.985.225-4.349.343-1.3-.531-4.429-1.779-3.828-1.363-4.354-2.761-1.3-3.374-1.748-4.436-.808-1.137-1.336-2.457-2.031.225-5.409.3-2.605.223-6.671,1.817-4.676,1.024-9.271.874-7.8-2.124-10.122-2.916-2.682-.458-6.1-.949-2.68-2.23-3.539-3.674-2.273-1.779-6.75-1.438-4.633.12-7.149-.567-2.729-1.588-4.842-3.71-1.42-.451-2.8-1.556a11.778,11.778,0,0,1-3.86-5.561c-1.1-2.954-.855-3.6-2.119-4.96s-1.175-1.023-5.126-1.023-2.144.263-2.637.531a26.436,26.436,0,0,0-2.806,3.367c-1.092,1.361.891,3.26,2.478,5.116s.2,1.661,2.729,4.467,1.663,2.535,3.453,6.433,2.929,4.885,3.329,6.06.78-.456,1.185-1.518-.159-4.847-.159-4.847a24.391,24.391,0,0,1,1.457,4.4c.694,2.8.2,2.836.694,4.622s0,1.545,3.051,1.545a30.36,30.36,0,0,0,8.295-.674c3.378-.8,4.831-3.862,6.417-4.774s1.593-4.091,2.645-3.748.048,3.748,1.017,5.979,1.219,1.438,3.583,2.423c2.348.987,3,1.556,5.4,2.46s.773,1.026,2.076,3.412,1.221,1.057,2.48,1.892.774.227-.122,3.068-1.057,2.873-3.168,5.185-2.119,1.593-2.441,1.516-.976-1.7-.976-1.7a17.81,17.81,0,0,0-1.543,5.985c-.2,3.217,1.055,2.036-2.811,3.59s-6.181,2.2-7.678,3.488-1.5,2.99-2.359,3.821-2.038.075-4.633.982-1.877.719-4.071,2.392-.247,1.513-3.045,2.566-7.889,3.522-10.451,3.792-2.031.944-2.68,1.888-.7,1.436-3.946,1.929-7.315.957-9.314,1.936-4.917,3.181-7.031,2.761-1.545-.492-2.237-2.385a22.786,22.786,0,0,1-1.384-6.358,29.741,29.741,0,0,0-3.215-10.827c-1.786-2.993-1.751-3.185-3.7-6.328s-3.254-5.79-4.96-7-2.557-1.286-3.378-2.194-.327-4.014-1.175-6.662-1.427-5.223-2.686-6.7a32.66,32.66,0,0,1-4.96-6.315c-1.743-3.149-1.867-3.494-4.382-8.336s-3.426-5.452-5.087-8.706-.576-2.618-1.18-4.549-2.2,3.143-3.453,4.13-1.91.492-2.929-2.387-1.878-5.409-2.643-4.273-1.384,2.269-.333,5.343c1.062,3.056,1.556,2.41,2.932,5.328s5.158,10.231,6.7,13.255.937,1.548,2.364,6.135,2.231,5.148,4.139,7.034,1.593.912,2.446,4.016.531,6.741.654,8.64,1.173,2.873,3.453,4.767,1.137,1.211,2.194,3.217a44.762,44.762,0,0,1,2.729,6.816c.606,1.967,1.339,3.335,3.126,4.2a30.461,30.461,0,0,0,4.071,1.631c1.784.644,1.168,1.094,2.391,2.65s3.583,2.721,5.051,5.189.481,1.738.4,4.125-.847,1.287.209,2.535,2.884,2.271,5.968,4.311.621.612,3.378.535,3.342-.8,6.306-1.441,6.787-1.742,10.446-2.611,7.231-1.436,9.108-2.047,1.917,1.446.485,4.622-2.108,5.829-3.331,8.406-1.674,2.8-2.562,4.887-6.918,10.594-8.168,13.287a33.168,33.168,0,0,1-4.6,7.082c-1.833,2.231-7.565,6.281-10.246,8.441s-2,2.156-3.986,4.7S877.1,568.5,875.464,571a51.329,51.329,0,0,0-3.774,5.867c-1.218,2.46-4.67,5.94-4.88,7.721s-2.151,2.012-.69,3.565,2.235,1.813,2.764,3.782-1.629,4.2-.24,7.8.4,1.024,2.482,3.9,1.99,4.7,2.189,8.9.408,8.365-.242,11.089a51.568,51.568,0,0,1-2.478,6.972c-.932,2.455-6.058,4.127-9.073,5.446s-2.879.8-4.266,2.46-5.362,5.148-6.7,7.723-2.36,2.312-1.829,3.939,1.657,3.751,3.045,6.78.409,2.8.08,5.416-.282,2.2-.647,5.373-4.109,3.254-8.377,4.922-2.723.835-3.219,3.142-.191,6.852-.365,9.577-1.457,1.629-3.78,5-3.247,4.965-5.731,9.014-2.273,3.485-5.411,6.02-5.609,3.176-6.988,6.094-2.97.984-9.679,3.14-1.827,1.107-8.207,1.818-8.667,1.218-12.039,1.818-2.934-.182-5-2.455-2.4-2.092-3.324-3.98c-.944-1.894-.247-2.348-.536-5.759s-.569-3.517-1.824-5.639-1.185-2.457-2.562-5.829a27.69,27.69,0,0,0-3.544-6.584c-1.541-2.274-1.99-1.552-3.412-3.031s-1.464-2.768-1.792-4.849-.815-7-1.5-12.193-.079-2.423-.9-4.617c-.8-2.194-1.784-4.846-3.168-7.758a42.169,42.169,0,0,0-3.009-5.759,34.8,34.8,0,0,1-3.254-6.24c-1.341-3.147-1.538-1.75-1.62-2.961s.688-3.406.774-5.525.771-4.576,1.291-7.837c.536-3.254-.724-3.217.654-5.452a35.732,35.732,0,0,0,3.7-6.816c.9-2.532.767-2.648.767-5.868s-.327-2.949-1.3-5.641-1.341-5.831-2.519-10.142-1.142-4.163-1.309-5.834a40.506,40.506,0,0,0-1.786-7.685c-.808-2.267-1.218-1.364-3-2.836s-.61-.84-2.155-2.468-1.26-2.156-2.766-3.937a21.753,21.753,0,0,1-2.932-3.859c-1.212-2.006-.56-.792-.4-4.166s1.134-9.809,1.751-13.519.733-3.515-.694-5.073-2.444-3.787-3.537-4.161-3.744.374-7.6.3-3.7-.944-5.362-2.879-3.871-4.617-4.644-5.336-2.113-.685-8.692-.193-2.605.612-7,1.293-6.1,2.988-9.471,4.166-4.349.869-10.283-.3-8.9,1.366-11.914,2.652-4.474.674-6.668-.837a42.94,42.94,0,0,0-6.875-4.427c-3.365-1.668-2.6-2.575-5.929-4.205s-2.24-1.7-5-4.316-2.965-5.259-4.878-7.987-3.546-6.55-6.1-9.43-5.078-8.67-6.339-10.4-2.23-1.9-2.2-2.73,2.484-5.716,3.5-8.252,1.3-2.2,1.743-3.785-.6-6.172-1.582-8.672-2.074-7.764-2.841-10.224.4-2.5,1.341-3.893a84.52,84.52,0,0,0,5.484-8.633c2.317-4.324,3.621-6.441,4.839-8.452s4.021-8.171,5.861-9.84a58.159,58.159,0,0,1,8.488-6.022c1.988-1.017,3.617-1.588,3.946-2.5s1.173-8.4,1.749-11.544-.2-4.887,2.074-6.1,5.936-3.485,7.85-4.547,2.194-2.648,3.165-4.953,1.388-5.223,2.854-6.178,1.053.418,2.963,1.706a7.823,7.823,0,0,0,3.133,1.593c.9.229,1.706-.726,3.946-.756a5.513,5.513,0,0,1,3.817.985c1.336.713.606.719,4.434-1.631a60.566,60.566,0,0,1,11.873-5.64c5-1.856,8.413-2.879,10.73-3.143s1.135.032,3.741,1.062,2.725,1.475,3.251.712,2.237-2.877,3.335-2.8,2.358.531,5.164,1.023,3.984.225,5.126-.381,2.6-1.817,2.879-1.817a48.24,48.24,0,0,1,4.64,1.556c1.951.717,1.988.831,1.586,1.318a10.231,10.231,0,0,0-1.91,3.143c-.937,2.124-.492.987.4,3.222s1.543,2.117,1.135,3.748-2.235,3.142-3.576,4.729-1.014,1.854,2.278,3.716a46.625,46.625,0,0,0,6.221,3.213c3.7,1.668,3.86,1.062,8.173,2.348s3.778,1.438,5.28,3.186,1.588,3.4,4.189,4.311,5.366.912,6.873,1.854,2.725,2.312,4.762,2.693,2.02.642,3-.837,1.786-2.8,1.427-3.56-1.47-1.931-1.227-2.65a50.336,50.336,0,0,1,2.48-4.461c.538-.874,1.877-1.105,5.09-1.255s5.443-.606,5.974,1.287.406,1.025,2.884,2.047,2.729,1.021,4.8,1.818,1.019,1.926,2.076,1.851a12.727,12.727,0,0,1,4.713.343c1.951.569,5.527,2.273,9.309,2.423a9.562,9.562,0,0,0,5.818-1.253c.567-.259,3.249-3.551,4.842-1.282s3.651,2.31,7.633,2.079,4.027-.831,4.922-1.854a27.617,27.617,0,0,0,4.07-7.535c.769-2.648,2.88-8.44,3.449-11.056a15.651,15.651,0,0,0-.241-6.2,8.613,8.613,0,0,1,.778-4.359c.606-1.736-1.913-.681-2.934-.338s-1.3-.531-2.23-.8-1.915-.493-2.607,1.255-.37,2.611-4.107,2.423-3.045-.417-4.266-1.747-3.294-1.663-4.967-2.156-1.822-.418-1.947.644-.159,1.781-1.377,2.2-3.986-.075-6.307-1.173a15.278,15.278,0,0,1-5.287-3.866c-2.278-2.232-1.945-2.232-2.884-5.673s-.932-6.4-.526-7.42,1.057-1.325-.69-.794-2.934.824-1.754-1.781,2.274-2.73,3.5-3.072a32.659,32.659,0,0,1,5.405-.526,13.274,13.274,0,0,0,4.917-1.668c.815-.343,2.487-.912,1.631-1.137s-3.417-.492-2.972-1.21.735-.681,2.112-.831,3.54-.231,5.373-.338,2.923.224,3.54-.874a8.881,8.881,0,0,1,2.8-3.6c1.427-.869,2.97-.418,6.714-.569s3.163.756,4.386,1.629,2.031.451,3.622.756.608,1.25,1.826,1.745,3.458.985,6.176,1.854.939.494,4.27.494a23,23,0,0,0,5.859-.418c2.639-.456,3.742-1.438,5.609-2.768s.569-4.2-.118-6.435-3.624-3.667-4.965-4.69-4.225-4.284-5.77-5.606-3.34-1.7-5.046-2.646-4.756-2.507-5.039-3.755.653-1.282,3.172-1.886,1.711-1.137,2.19-2.467.7-1.287,2.766-2.044-2.392-2.348-3.009-3.211c-.606-.88,1.384-.612,3.46-1.1a2.807,2.807,0,0,0,2.519-2.348c.29-.869.2-1.287-2.235-1.244s-5.529,1.057-9.638,2.155-2.23,1.137-4.713,3.068-2.643,1.092-2.316,2.155.483,2.081,3,3.41,1.459,1.363,2.162,1.557,2.4.451,1.624.679-1.468,1.432-2.605,1.432S850.948,335.5,849,336.6a10.391,10.391,0,0,1-4.225,1.48c-1.422.224-2.439-.232-2.242-2.657s-.73-.787-2.235-1.355a5.591,5.591,0,0,1-2.076-1.218,17.188,17.188,0,0,0,3.015-1.473,5.829,5.829,0,0,0,2.927-3.369c.728-1.854-1.631-.837-3.335-1.06s-1.225-.383-2.886-.608a3.126,3.126,0,0,1-2.316-1.548,5.073,5.073,0,0,0,2.192.15c1.42-.15,1.1-.531,1.625-.912s.944-.719.529-.719-2.155.19-3.329.114a12.5,12.5,0,0,0-3.581,0c-1.709.261-1.017.9-2.237,1.7a4.352,4.352,0,0,0-1.908,2.242c-.647,1.168-.858.98-1.3,1.736s-.408,2.65-.408,3.941a3.833,3.833,0,0,1-1.1,2.761c-.772,1.062-.772.606-2.076,1.246s-.445,1.1-.6,2.391-.612,1.781-.737,3.447-.771,1.738-1.784,2.911-1.586,1.169-1.668,2.387a14.529,14.529,0,0,0,0,4.086c.284,2.349.933,1.743,2.768,4.129s2.8,1.481,2.149,2.687-.526.762-2.766.492-2.594.075-4.22,1.631-1.963,2.425-2.811,2.991-.567-1.135-.89-1.935-4.07-1.057-6.632-1.817-3.254-1.212-3.9-1.212-1.641-.15-4.327,1.329-2.076,2.328-1.888,4.259,2.31,2.328,1.7,6.87,2.258,2.444,3.476,5.225.123,2.553-.606,2.9-1.464,2.723-2.015,5,.057,2.557-.612,2.444-1.459.4-2.741-1.479-2.316-.109-2.505-1.191-1.768-2.9-1.157-5.395,1.588-2.73-.612-4.034-1.641-1.479-2.682-4.15a15.016,15.016,0,0,0-3.286-5.62c-2.022-2.439-1.838-1.758-1.287-4.2s.976-5.622-.245-7.326a40.78,40.78,0,0,0-10.43-8.633c-4.146-2.21-5-.51-6.832-4.032s-2.671-7.213-5.727-9.373-1.522-2.328-4.451-1.246-2.991,1.536-2.745,2.382a7.277,7.277,0,0,1,.481,4.322c-.427,2.323-1.034,1.588,2.017,3.4s1.77,1.427,3.294,4.772,1.768,3.978,2.992,5.341,1.647,2.552,4.7,3.238,2.559-.172,3.345.569-2.133,1.017-1.582,1.363a28.3,28.3,0,0,0,3.782,2.895c2.562,1.588,5.191,3.238,5.861,4.488s2.922,5.958-.37,2.493-3.353-1.865-4.27.515.849,4.2.735,5.963-1.65,1.084-2.691,2.5-1.581,3.12-2.8,4.032-.853-1.019-1.518-1.019-.917.848-1.77,2.494,0,2.33.359,4.547.982,2.385-1.4,2.273-1.833-2.332-4.021-3.807-3.474-.966-5.309-2.106.8-1.416,5.368-1.987,5.123-1.017,6.528-2.1.91-1.366,2.439-3.523,0-3.015-1.041-5.631a9.54,9.54,0,0,0-3.658-4.311,36.825,36.825,0,0,1-3.533-3.519c-1.345-1.479-2.75-1.7-5.067-2.273s-1.886-2.67-3.168-3.292-2.564-2.446-5.489-5.169-1.826-4.774-3.17-7.154-2.682-4.2-5.615-4.2-5.121,2.04-8.048,4.878-2.316,4.2-5.732,2.049-4.628-1.929-7.077.111c-2.43,2.044-2.923,4.091-2.923,8.178s-2.927,2.387-5.244,3.517-4.391,3.98-7.925,10.682.24,3.517-.494,5.79.247,4.093-3.045,7.043-1.835-.34-3.78,2.047a9.534,9.534,0,0,1-9.273,3.748c-4.636-.567-3.3,1.25-6.224,1.931s-4.511,1.7-3.78-1.595.123-2.834-5.487-2.611-7.563,1.708-7.077.912.733-2.16,1.352-5.339,1.457-4.206.612-4.206-2.693.461-1.346-5.223,1.827-6.7,1.218-9.993.234-7.728-.483-9.659c-.735-1.924,1.457-3.855.483-4.883s-2.076-2.38-1.341-2.38a51.065,51.065,0,0,1,7.683.792c3.911.681,7.926-.569,10.247-.343s7.2,1.25,12.071,2.047,4.756-.687,4.273-7.839.365-10.444-1.105-11.926-3.04-1.361-4.629-3.29-.37-4.772-3.778-5.8-7.206-.223-5.368-.9,2.557-.912.611-2.385c-1.963-1.477-2.45-3.063-.982-3.3s5.609-.225,5.609-.225.37,2.047,2.568,1.137,5-1.813,4.391-3.292-1.711-3.294-1.35-3.294,1.227,2.044,5.854,2.044,4.27-.681,3.91-2.611,3.05-1.818,5.368-3.412-.86-3.4-.367-4.88,3.17-2.391,7.926-2.723,3.9-1.143,3.415-1.706.123-2.959.483-6.022c.375-3.072-.359-4.091,2.081-5.564s1.7-.908,6.707-1.368,1.947-1.588,2.8-1.811,6.832-1.706,7.932-2.167.982-.334,0-2.5c-.982-2.149-2.317-3.4-3.41-13.394s-.858-10,5.239-11.812,4.76-1.252,4.268,4.316-3.17,5.564-3.78,9.652-.12,6.584,2.439,10.907,2.321,2.155,7.807,2.155,4.27,1.362,7.927,2.612,2.439-2.271,5.983-3.524,2.8.8,11.095-.451c3.163-.477,4.241-.59,4.488-.611-.252.016-1.164.027-.22-.526,1.953-1.135,2.439-3.179,5.25-3.522s4.751.8,4.628-3.522-1.7-3.63-1.218-6.929.606-1.813.853-4.429-.359-3.067,3.174-3.973,1.1,3.179,5.362,4.086,3.664,1.591,4.4-1.7,3.052-7.613.971-7.383-2.559-.114-4.633-3.181-3.286-3.748-1.947-3.748,5.85-1.25,12.313-1.025,8.3.794,8.659.113-1.094-1.357,1.1-2.723,9.395.679,8.3-.57-7.44-2.954-11.706-2.267-14.641,1.931-16.225,1.811a11.31,11.31,0,0,1-5.246-2.037c-.728-.8-3.05-1.368-3.05-5.116s1.345-5.223-.853-8.858,4.021-6.7,8.295-10.564,3.174-7.045,5.727-7.27c2.569-.225,3.549-1.588,2.321-2.841s-5.731-5.568-7.93-6.019-5.486-2.954-8.9,2.956.241,6.473.857,9.539-4.762,5.341-8.788,8.177-5.478,2.162-6.707,9.427-2.441,7.5,2.076,10,5.366,3.748,3.3,5.9-6.467,2.049-9.153,7.163-1.583,7.6-2.682,9.877-4.508,3.292-5.489,5.566-.971,6.585-5.121,5.909-1.829-6.253-3.662-9.1-3.294-5.221-5.487-8.738-.481-6.929-2.56-8.753-2.564-5.448-2.564-5.448l-.729,1.706c-.73,1.706-.365,2.725-4.51,7.841s-10.371,5.448-13.421,4.2-2.559-4.2-2.559-7.951-.735-8.747-.122-14.651,2.319-5.454,8.788-9.314,6.578-3.635,8.166-6.133,6.224-6.022,8.9-8.295,7.324-10.9,9.759-17.035,6.948-9.884,11.34-16.468,12.2-12.38,22.2-16.581,8.3-4.66,10.607-7.957c2.323-3.294,3.3-1.362,7.2-2.156s3.292,0-.612,3.86-5.6,7.951-2.316,4.885,5.849-6.7,10.975-6.473,3.05,0,8.053,2.274,5.858,2.493,3.056,4.311c-2.82,1.818-7.569,1.368-7.569,1.368a7.875,7.875,0,0,0,6.219,4.316c4.638.569,7.2-3.637,10.247-2.047s3.9,2.723-.247,2.385-5.362,2.269-.241,4.086,5.609,2.044,12.316,2.956,9.643,5.791,14.757,7.951c5.132,2.162,11.1.338,9.4,5s1.336,9.2-7.565,11.356-8.665-.685-16.1-2.959a131.265,131.265,0,0,1-12.681-4.542,47.95,47.95,0,0,0,5.362,5.8c3.412,3.174,3.78,6.129,3.412,11.924s-1.953,7.385,3.907,10.22,5,2.044,6.827,1.593,4.88-1.025,4.145-1.935-1.341-2.607-3.292-3.519-2.07-3.066-.118-4.091,3.775.907,8.048.681,0-1.588,2.071-3.742,2.2-5.791,7.2-7.732,10.358.91,11.71-1.246,2.806-4.653,0-7.951-5-4.424-3.3-6.022,5.126-5.79,6.712-3.4,5.611,5,.49,4.542-1.593,7.612,3.045,7.158,4.268-1.931,8.055-3.748,11.216-7.841,16.461-9.659,6.344-1.361,8.413-.451,2.076,2.611,7.812,1.475,7.438-2.5,12.806-3.41-.365,1.935,2.069,2.723,2.686,1.48,4.522.238,7.683-3.3,5-5.343-4.645-3.41-4.645-3.41a7.3,7.3,0,0,1,7.079-3.973c5.119.338,12.92,5.11,17.93,8.52s11.1,10.671,11.1,10.671,2.189-3.742.359-10-6.46-4.767-6.46-10.671-4.272-4.322-2.8-8.52,5.609-5.8,6.712-11.138,2.071-9.759,5.851-9.759,11.953,1.132,11.953,1.132,0,4.885-3.052,12.157,1.586,8.064.858,16.924-.858,9.993,1.218,12.035,5.985,4.549,4.513,8.4-2.2,6.251-7.683,8.407-12.439.912-9.888,2.616a24.341,24.341,0,0,0,9.518,3.744c3.662.567,1.829-.225,4.758-2.612s9.518-7.158,9.269-9.432-3.78-5.791-1.339-7.5,3.41-4.311,7.2-2.156,7.444,10.226,7.444,9.883-.737-7.951-5.244-12.488-11.953-.238-11.953-4.2,2.071-9.434,1.582-13.748-2.187-8.634.611-12.377,2.929-6.7,2.929-6.7a16.049,16.049,0,0,1,.24,7.948c-.971,4.429.494,7.045,2.564,7.045s11.34.118,6.344-1.363-6.462-2.839-1.464-5.564,4.756-.912,12.069.792,9.024,2.956,11.47,2.843,2.074-.343,1.216-2.5a9.719,9.719,0,0,0-4.266-5.117c-2.323-1.473-3.9.345-4.633-1.929s-2.072-7.951-2.687-10.108,1.833-.456,5.732-.456,14.516-.567,22.692-.792.123-8.747-.493-14.767,15.127-6.247,22.8-7.379,16.589-.792,30.983-4.2,5.125-2.841,7.2-6.929,5.615-4.771,9.882-4.771,8.177.794,6.589,1.361-6.344,2.95,1.1,4.547,5.5,1.47,1.586,2.838-.606,3.86,6.95,3.86,3.05-.681,1.827-3.179,1.1-1.595,7.324-.569,8.661,2.047,12.076,5.223,4.021,2.391,5.239,6.82-.118,3.744-5.362,7.835-8.413,4.091-15.98,8.863-5.736,7.265-9.875,10.446-3.051,2.273,5.725,0,13.539-3.75,18.059-3.294,6.7,2.156,10.12,2.156-.241.567,10.492.567,9.137,0,5.239,3.068.735,3.978,5.491,3.978,10.61.227,15-.456c4.4-.681.617-3.973,5.861-4.2s6.95-.681,12.559-.681,3.9,2.274,5.856,4.316,4.631,3.406,2.8,7.5-2.8,4.2-1.711,9.765,3.909,6.358,7.326,7.383,3.41-4.992,6.709-7.04,4.027,4.084,7.807,3.179a22.438,22.438,0,0,1,11.342.563,18.422,18.422,0,0,0,10.734.572c4.633-1.023,3.168-2.836,1.588-5.677s-1.711-2.616,1.218-5.566,4.878-1.481,14.392,1.019,6.465,2.5,11.828,3.978,3.662,1.137,11.833,4.885,6.591,8.177,10.365,10.558,4.027,0,11.592-.676,7.438.907,15.733,3.068,6.092,4.878,6.092,7.27-2.312,4.2,2.811,5.336,7.2,2.156,11.587,1.025.49,1.132,10.247,1.243,6.467-1.132,9.4.912,3.655,6.133,8.413,5.684,4.391-.343,2.439-4.547-3.176-4.89-.365-4.772,8.536,1.361,19.143,3.066,10.975,3.637,19.647,9.089c8.654,5.454,11.088,5.9,17.437,10.789,2.419,1.861,2.895,2.4,2.948,2.537a15.117,15.117,0,0,1,3.276,1.323c6.821,3.179,5.609,2.162,11.465,5a66.782,66.782,0,0,1,10.843,6.814s.375.57-4.016,1.026M929.466,334.715s-.649.867,2.766-1.861-1.591-.113-3.544-.681-2.562-1.479-1.945-3.973-.249-2.5-2.323-5.8c0,0-1.1-.674-3.41.681s-3.659-1.355-6.466-.336-5.858.567-7.567,4.772-3.658,1.473-4.264,4.878-5.859,5.223-5.859,5.223,2.08,2.049,3.662,3.98.488.685,2.07,7.045,2.691,5.792,4.885,6.7a48.021,48.021,0,0,1,5.607,3.072s-2.069-1.253-2.069,2.155-3.3,5.791-2.934,10.789-4.508,9.654-.6,10.113,2.68,2.156,6.948,3.292a40.174,40.174,0,0,0,12.935,1.931c6.214,0,2.8-2.387,1.947-5.91a47.981,47.981,0,0,1-1.582-9.652c-.249-3.86-1.711-2.843-2.687-5.223s.486-3.751,3.41-3.751,3.3-.114,1.711-2.725-.6-3.635-2.568-4.774c-1.942-1.135-2.8,3.755-2.8,3.755s-1.219-1.137-.729-5.91.851-2.5-.606-3.41-2.328.225-4.273-2.949-.241-2.5-2.557-6.36-1.105-1.824,1.457-1.824,1.218-.569,0-1.811-2.069-3.186,1.218-2.956,7.565.907,9.148,1.025,1.025.494,1.025.494M474.421,159.706c-1.126,1.94,1.91,4.429,4.107,3.657s2.916.086,4.166-.917,1.368-2.462-.116-3.9-.885-2.287-1.134-2.442c-2.8-1.717-5.892,1.663-7.023,3.6M1077.375,34.473c-3.3.113-6.961.231-3.905,1.25s1.829,6.135,7.68,3.292,4.638-3.067,8.665-4.771,1.693-.885-3.168-2.156c-3.05-.794-5.979,2.274-9.271,2.385" transform="translate(0 0)" fill="#7c98ab"/>
              </g>
            </g>
          </g>
        </g>
      </g>
    </g>
  </g>
</svg>
